<svg width="100" height="63" viewBox="0 0 100 63" fill="none" xmlns="http://www.w3.org/2000/svg">
<path fill-rule="evenodd" clip-rule="evenodd" d="M42.8359 7.00629C40.3516 8.23002 37.6603 10.794 34.4539 13.9032C32.7802 15.5261 30.8054 17.8322 28.7306 20.555C30.4851 23.4413 31.2403 26.8645 31.3611 30.2681C31.5278 34.9656 30.5123 40.0056 28.8331 44.5414C27.1574 49.0675 24.7354 53.3218 21.893 56.3706C19.1674 59.2941 15.3661 61.795 11.1085 60.9277C8.69129 60.4353 7.00427 58.8796 6.22207 56.7247C5.53046 54.8193 5.60693 52.6415 5.94972 50.6102C6.64511 46.4893 8.72648 41.3895 11.3223 36.3051C13.9249 31.2074 17.2035 25.8238 20.5303 21.0367C19.3979 20.2806 18.3574 19.9501 17.428 19.8533C16.0798 19.713 14.6589 20.0344 13.1814 20.7806C10.1319 22.3206 7.40589 25.3934 5.86453 27.8423C4.93015 29.3268 2.96922 29.7728 1.48468 28.8384C0.00013401 27.9041 -0.445853 25.9431 0.488534 24.4586C2.37995 21.4535 5.87139 17.356 10.3179 15.1104C12.5884 13.9637 15.2351 13.2385 18.0858 13.5352C20.2211 13.7575 22.3069 14.5367 24.2891 15.912C26.3272 13.2908 28.292 11.03 30.0318 9.34294C30.1099 9.26717 30.1884 9.19102 30.2673 9.11453C33.1686 6.29984 36.5455 3.02379 40.0288 1.30791C41.8975 0.387386 44.0384 -0.215687 46.3334 0.0725439C48.6746 0.366585 50.7768 1.53745 52.6194 3.44128C55.91 6.84129 55.9561 11.0433 55.0056 14.7376C54.1185 18.1857 52.2153 21.8136 50.5497 24.9886C50.4898 25.1028 50.4303 25.2164 50.371 25.3293C48.5489 28.8053 47.0637 31.7176 46.5227 34.1744C46.2646 35.3467 46.2806 36.1859 46.4441 36.7924C46.59 37.3334 46.9012 37.8814 47.6421 38.446C48.173 38.8504 48.4651 38.8401 48.7789 38.7621C49.2976 38.6331 50.1242 38.1867 51.2827 37.0982C53.5017 35.0132 55.8491 31.6592 58.5422 27.8112C58.6886 27.6021 58.836 27.3915 58.9844 27.1796C61.716 23.2798 64.8059 18.9321 68.1235 16.0622C69.8061 14.6067 71.7521 13.3443 73.9517 12.7938C76.2494 12.2187 78.6243 12.4742 80.9123 13.7309C82.9844 14.832 84.1586 16.6304 84.532 18.7153C84.8713 20.6104 84.5326 22.6109 84.0231 24.4202C83.1565 27.4978 81.4471 31.1267 79.7967 34.6301C79.5192 35.2192 79.2434 35.8047 78.9735 36.3835C77.004 40.6074 75.2587 44.6426 74.5776 48.1872C73.9032 51.6972 74.3978 53.9967 75.9707 55.5696C76.7003 56.2992 77.4423 56.5202 78.307 56.4557C79.2967 56.3819 80.566 55.9062 81.9853 54.9321C84.866 52.9549 87.3998 49.5961 88.3333 46.8723C88.902 45.213 90.7083 44.3288 92.3676 44.8975C94.027 45.4662 94.9112 47.2724 94.3425 48.9318C92.934 53.0415 89.5005 57.4786 85.5799 60.1695C83.5985 61.5293 81.2586 62.6055 78.7794 62.7904C76.1752 62.9846 73.5887 62.171 71.479 60.0613C67.7584 56.3407 67.4831 51.4459 68.3395 46.9885C69.1894 42.5657 71.2759 37.8606 73.2164 33.699C73.5124 33.064 73.8041 32.4435 74.0889 31.8375C75.7617 28.2782 77.1982 25.2217 77.9087 22.6985C78.321 21.234 78.3681 20.3312 78.2792 19.8349C78.2261 19.5386 78.1681 19.4647 77.9253 19.3371L77.8956 19.3215L77.8663 19.3053C76.9869 18.8189 76.2528 18.7661 75.494 18.956C74.6276 19.1728 73.5607 19.7579 72.2793 20.8664C69.6687 23.1247 67.0259 26.7714 64.1873 30.8239C63.9893 31.1066 63.79 31.3918 63.5895 31.6787C61.0661 35.2897 58.3551 39.1694 55.6324 41.7275C54.1517 43.1188 52.3713 44.4146 50.3113 44.9267C48.0465 45.4897 45.788 45.0192 43.7924 43.4987C42.0069 42.1384 40.8444 40.4248 40.3109 38.446C39.795 36.5328 39.926 34.594 40.3191 32.8086C41.0729 29.3846 43.0032 25.7025 44.6942 22.477L44.7449 22.3801C46.5639 18.9102 48.1576 15.8603 48.8537 13.1548C49.5184 10.5715 49.1915 9.03345 48.0548 7.85897C47.0074 6.7767 46.1727 6.4545 45.5418 6.37527C44.8647 6.29023 43.9982 6.43369 42.8359 7.00629ZM24.4461 26.5689C21.7628 30.5782 19.1377 34.967 16.9798 39.1936C14.4658 44.1179 12.7442 48.5218 12.2134 51.6672C11.9431 53.2689 12.0507 54.1649 12.1931 54.5573C12.2179 54.6257 12.2194 54.6535 12.2341 54.6681C12.2501 54.684 12.2818 54.684 12.3764 54.7033C13.3161 54.8947 15.0008 54.448 17.2468 52.0389C19.3761 49.755 21.4115 46.2916 22.8759 42.336C24.3368 38.39 25.1439 34.1844 25.0128 30.4934C24.9615 29.0463 24.7698 27.7345 24.4461 26.5689Z" fill="#FCFDFC"/>
<path d="M100 38.0174C100 40.1436 98.2765 41.8672 96.1503 41.8672C94.024 41.8672 92.3004 40.1436 92.3004 38.0174C92.3004 35.8912 94.024 34.1675 96.1503 34.1675C98.2765 34.1675 100 35.8912 100 38.0174Z" fill="#FCFDFC"/>
</svg>
