<svg width="100" height="64" viewBox="0 0 100 64" fill="none" xmlns="http://www.w3.org/2000/svg">
<path fill-rule="evenodd" clip-rule="evenodd" d="M42.8359 7.30084C40.3516 8.52457 37.6603 11.0885 34.4539 14.1978C32.7802 15.8207 30.8054 18.1268 28.7306 20.8496C30.4851 23.7359 31.2403 27.1591 31.3611 30.5627C31.5278 35.2601 30.5123 40.3002 28.8331 44.8359C27.1574 49.362 24.7354 53.6164 21.893 56.6651C19.1674 59.5887 15.3661 62.0895 11.1085 61.2222C8.69129 60.7298 7.00427 59.1742 6.22207 57.0192C5.53046 55.1138 5.60693 52.9361 5.94972 50.9047C6.64511 46.7839 8.72648 41.6841 11.3223 36.5997C13.9249 31.5019 17.2036 26.1183 20.5303 21.3313C19.3979 20.5751 18.3574 20.2446 17.428 20.1479C16.0798 20.0075 14.6589 20.329 13.1814 21.0751C10.1319 22.6152 7.40589 25.688 5.86453 28.1369C4.93015 29.6214 2.96922 30.0674 1.48468 29.133C0.00013401 28.1986 -0.445853 26.2377 0.488534 24.7531C2.37995 21.7481 5.87139 17.6505 10.3179 15.405C12.5884 14.2583 15.2351 13.533 18.0858 13.8298C20.2211 14.0521 22.3069 14.8312 24.2891 16.2066C26.3272 13.5853 28.292 11.3246 30.0318 9.63749C30.1099 9.56173 30.1884 9.48558 30.2673 9.40909C33.1686 6.5944 36.5455 3.31834 40.0288 1.60247C41.8975 0.681942 44.0384 0.0788689 46.3334 0.3671C48.6746 0.66114 50.7768 1.83201 52.6194 3.73584C55.91 7.13584 55.9561 11.3379 55.0056 15.0321C54.1185 18.4802 52.2153 22.1082 50.5497 25.2832C50.4898 25.3973 50.4303 25.5109 50.371 25.6239C48.5489 29.0998 47.0637 32.0121 46.5227 34.469C46.2646 35.6413 46.2806 36.4804 46.4441 37.087C46.59 37.628 46.9012 38.176 47.6421 38.7405C48.173 39.145 48.4651 39.1347 48.7789 39.0566C49.2976 38.9277 50.1242 38.4813 51.2827 37.3928C53.5017 35.3078 55.8491 31.9537 58.5422 28.1058C58.6886 27.8966 58.836 27.6861 58.9844 27.4741C61.716 23.5744 64.8059 19.2266 68.1235 16.3568C69.8061 14.9013 71.7521 13.6389 73.9517 13.0884C76.2494 12.5133 78.6243 12.7688 80.9123 14.0255C82.9844 15.1265 84.1587 16.925 84.532 19.0098C84.8713 20.905 84.5326 22.9054 84.0231 24.7148C83.1565 27.7923 81.4471 31.4212 79.7967 34.9247C79.5192 35.5137 79.2434 36.0993 78.9735 36.678C77.004 40.9019 75.2587 44.9372 74.5776 48.4817C73.9032 51.9917 74.3978 54.2912 75.9707 55.8642C76.7003 56.5938 77.4423 56.8148 78.307 56.7503C79.2967 56.6765 80.566 56.2007 81.9853 55.2266C84.8661 53.2495 87.3998 49.8907 88.3333 47.1669C88.902 45.5075 90.7083 44.6234 92.3676 45.1921C94.027 45.7608 94.9112 47.567 94.3425 49.2264C92.934 53.3361 89.5005 57.7732 85.5799 60.464C83.5985 61.8239 81.2586 62.9001 78.7794 63.0849C76.1752 63.2791 73.5887 62.4655 71.479 60.3559C67.7584 56.6353 67.483 51.7404 68.3395 47.2831C69.1894 42.8602 71.2759 38.1551 73.2164 33.9936C73.5124 33.3586 73.8041 32.738 74.0889 32.1321C75.7617 28.5728 77.1982 25.5162 77.9087 22.9931C78.321 21.5285 78.368 20.6258 78.2792 20.1295C78.2261 19.8332 78.1681 19.7593 77.9253 19.6317L77.8956 19.6161L77.8663 19.5998C76.9869 19.1135 76.2528 19.0606 75.494 19.2505C74.6276 19.4674 73.5607 20.0524 72.2793 21.161C69.6687 23.4193 67.0259 27.0659 64.1873 31.1185C63.9893 31.4012 63.79 31.6863 63.5895 31.9732C61.0661 35.5843 58.3551 39.4639 55.6324 42.0221C54.1517 43.4134 52.3713 44.7092 50.3113 45.2213C48.0465 45.7843 45.788 45.3138 43.7924 43.7933C42.0069 42.4329 40.8444 40.7194 40.3109 38.7406C39.795 36.8273 39.926 34.8885 40.3191 33.1032C41.0729 29.6791 43.0032 25.9971 44.6942 22.7715L44.7449 22.6747C46.5639 19.2048 48.1576 16.1548 48.8537 13.4493C49.5184 10.866 49.1915 9.32801 48.0548 8.15353C47.0074 7.07126 46.1727 6.74905 45.5418 6.66982C44.8647 6.58478 43.9982 6.72825 42.8359 7.30084ZM24.4461 26.8635C21.7628 30.8727 19.1377 35.2616 16.9798 39.4881C14.4658 44.4125 12.7442 48.8164 12.2134 51.9617C11.9431 53.5635 12.0507 54.4594 12.1931 54.8518C12.2179 54.9202 12.2194 54.9481 12.2341 54.9627C12.2501 54.9785 12.2818 54.9785 12.3764 54.9978C13.3161 55.1892 15.0008 54.7425 17.2468 52.3334C19.3761 50.0495 21.4115 46.5861 22.8759 42.6305C24.3368 38.6846 25.1439 34.479 25.0128 30.788C24.9615 29.3409 24.7698 28.029 24.4461 26.8635Z" fill="black"/>
<path d="M100 38.3119C100 40.4381 98.2764 42.1618 96.1502 42.1618C94.024 42.1618 92.3004 40.4381 92.3004 38.3119C92.3004 36.1857 94.024 34.4621 96.1502 34.4621C98.2764 34.4621 100 36.1857 100 38.3119Z" fill="black"/>
</svg>
