<svg width="6583" height="249" viewBox="0 0 6583 249" fill="none" xmlns="http://www.w3.org/2000/svg">
<path d="M12.2151 205.747H102.385V182.427H37.3116V48.0608H12.2151V205.747ZM165.869 207.968C186.967 207.968 201.625 196.419 205.845 187.313H206.511V205.747H230.942V90.2584H206.511V108.692H205.845C201.625 99.5863 186.967 88.0375 165.869 88.0375C138.551 88.0375 109.901 108.248 109.901 148.002C109.901 187.757 138.551 207.968 165.869 207.968ZM134.109 148.002C134.109 123.128 152.099 110.247 170.532 110.247C189.188 110.247 207.178 123.128 207.178 148.002C207.178 172.877 189.188 185.758 170.532 185.758C152.099 185.758 134.109 172.877 134.109 148.002ZM290.659 207.968C313.312 207.968 332.856 196.419 332.856 173.321C332.856 153.555 318.42 145.337 302.429 139.341L291.103 134.899C280.664 131.123 276.889 126.015 276.889 120.019C276.889 112.468 283.107 107.582 291.991 107.582C299.986 107.582 306.427 111.579 309.759 120.907L329.081 115.799C325.083 98.92 310.647 88.0375 290.881 88.0375C270.004 88.0375 252.903 100.253 252.903 119.797C252.903 133.344 260.898 145.115 279.998 152.444L292.435 157.108C303.54 161.55 308.426 165.992 308.426 173.321C308.426 183.537 299.542 188.201 290.436 188.201C278.443 188.201 271.114 180.428 268.671 170.656L248.683 176.208C252.237 196.641 268.449 207.968 290.659 207.968ZM389.896 207.079C396.114 207.079 403.666 205.969 407.885 202.415V183.093C403.666 184.648 399.89 185.092 397.225 185.092C388.119 185.092 384.566 179.984 384.566 173.321V110.025H407.885V90.2584H384.566V60.7201H359.913V90.2584H343.923V110.025H359.913V177.763C359.913 198.418 372.35 207.079 389.896 207.079ZM480.877 207.968C500.422 207.968 517.079 199.972 527.073 187.535L515.524 175.542C507.084 183.537 495.98 187.535 483.543 187.535C463.776 187.535 448.008 177.319 444.232 157.33H534.846C540.398 108.914 508.417 88.0375 479.101 88.0375C449.784 88.0375 421.135 109.136 421.135 148.002C421.135 186.425 449.562 207.968 480.877 207.968ZM444.01 139.119C447.564 118.686 463.11 108.914 479.323 108.914C495.758 108.914 511.748 119.13 513.081 139.119H444.01ZM586.493 207.968C609.146 207.968 628.691 196.419 628.691 173.321C628.691 153.555 614.255 145.337 598.264 139.341L586.937 134.899C576.499 131.123 572.723 126.015 572.723 120.019C572.723 112.468 578.942 107.582 587.825 107.582C595.821 107.582 602.261 111.579 605.593 120.907L624.915 115.799C620.917 98.92 606.481 88.0375 586.715 88.0375C565.838 88.0375 548.737 100.253 548.737 119.797C548.737 133.344 556.733 145.115 575.832 152.444L588.27 157.108C599.374 161.55 604.26 165.992 604.26 173.321C604.26 183.537 595.377 188.201 586.271 188.201C574.278 188.201 566.949 180.428 564.506 170.656L544.517 176.208C548.071 196.641 564.284 207.968 586.493 207.968ZM685.73 207.079C691.949 207.079 699.5 205.969 703.72 202.415V183.093C699.5 184.648 695.724 185.092 693.059 185.092C683.953 185.092 680.4 179.984 680.4 173.321V110.025H703.72V90.2584H680.4V60.7201H655.748V90.2584H639.757V110.025H655.748V177.763C655.748 198.418 668.185 207.079 685.73 207.079ZM770.231 205.747H795.317V153.133H823.955C857.921 153.133 879.233 131.821 879.233 100.741C879.233 69.4386 857.921 48.1266 823.955 48.1266H770.231V205.747ZM795.317 129.823V71.4366H821.513C840.827 71.4366 853.703 80.5386 853.703 100.741C853.703 120.943 840.827 129.823 821.513 129.823H795.317ZM899.225 205.747H923.645V151.801C923.645 127.603 938.519 111.619 960.497 111.619C963.161 111.619 965.159 111.841 967.601 112.285V88.9746C965.159 88.3086 962.939 88.0866 960.275 88.0866C939.185 88.0866 927.641 102.739 923.645 120.055V90.3066H899.225V205.747ZM1037.74 207.967C1067.71 207.967 1098.13 186.877 1098.13 148.027C1098.13 109.177 1067.71 88.0866 1037.74 88.0866C1007.77 88.0866 977.359 109.177 977.359 148.027C977.359 186.877 1007.77 207.967 1037.74 207.967ZM1001.56 148.027C1001.56 124.273 1018.87 110.509 1037.74 110.509C1056.61 110.509 1073.71 124.273 1073.71 148.027C1073.71 171.781 1056.61 185.545 1037.74 185.545C1018.87 185.545 1001.56 171.781 1001.56 148.027ZM1080.36 248.593H1087.25C1120.32 248.593 1137.64 235.939 1137.64 200.641V90.3066H1113V198.199C1113 221.065 1102.79 225.727 1086.14 225.727H1080.36V248.593ZM1113 70.1046H1137.64V48.1266H1113V70.1046ZM1215.93 207.967C1235.47 207.967 1252.12 199.975 1262.11 187.543L1250.57 175.555C1242.13 183.547 1231.03 187.543 1218.6 187.543C1198.84 187.543 1183.08 177.331 1179.3 157.351H1269.88C1275.43 108.955 1243.46 88.0866 1214.16 88.0866C1184.85 88.0866 1156.22 109.177 1156.22 148.027C1156.22 186.433 1184.63 207.967 1215.93 207.967ZM1179.08 139.147C1182.63 118.723 1198.17 108.955 1214.38 108.955C1230.81 108.955 1246.79 119.167 1248.12 139.147H1179.08ZM1344.29 207.967C1364.5 207.967 1383.14 198.199 1393.8 179.551L1375.6 168.229C1368.94 178.885 1357.61 185.545 1344.52 185.545C1325.87 185.545 1308.11 171.781 1308.11 148.027C1308.11 124.273 1325.87 110.509 1344.52 110.509C1357.61 110.509 1368.94 117.169 1375.6 127.825L1393.8 116.503C1383.14 97.6326 1364.5 88.0866 1344.29 88.0866C1314.1 88.0866 1283.91 109.177 1283.91 148.027C1283.91 186.877 1314.1 207.967 1344.29 207.967ZM1452.79 207.079C1459 207.079 1466.55 205.969 1470.77 202.417V183.103C1466.55 184.657 1462.78 185.101 1460.11 185.101C1451.01 185.101 1447.46 179.995 1447.46 173.335V110.065H1470.77V90.3066H1447.46V60.7806H1422.82V90.3066H1406.83V110.065H1422.82V177.775C1422.82 198.421 1435.25 207.079 1452.79 207.079ZM1526.16 207.967C1548.81 207.967 1568.34 196.423 1568.34 173.335C1568.34 153.577 1553.91 145.363 1537.93 139.369L1526.61 134.929C1516.17 131.155 1512.4 126.049 1512.4 120.055C1512.4 112.507 1518.61 107.623 1527.49 107.623C1535.49 107.623 1541.92 111.619 1545.25 120.943L1564.57 115.837C1560.57 98.9646 1546.14 88.0866 1526.38 88.0866C1505.52 88.0866 1488.42 100.297 1488.42 119.833C1488.42 133.375 1496.41 145.141 1515.51 152.467L1527.94 157.129C1539.04 161.569 1543.92 166.009 1543.92 173.335C1543.92 183.547 1535.04 188.209 1525.94 188.209C1513.95 188.209 1506.63 180.439 1504.18 170.671L1484.2 176.221C1487.76 196.645 1503.96 207.967 1526.16 207.967Z" fill="#1B171B"/>
<path d="M3369.22 205.747H3459.38V182.427H3394.31V48.0608H3369.22V205.747ZM3522.87 207.968C3543.97 207.968 3558.63 196.419 3562.85 187.313H3563.51V205.747H3587.94V90.2584H3563.51V108.692H3562.85C3558.63 99.5863 3543.97 88.0375 3522.87 88.0375C3495.55 88.0375 3466.9 108.248 3466.9 148.002C3466.9 187.757 3495.55 207.968 3522.87 207.968ZM3491.11 148.002C3491.11 123.128 3509.1 110.247 3527.53 110.247C3546.19 110.247 3564.18 123.128 3564.18 148.002C3564.18 172.877 3546.19 185.758 3527.53 185.758C3509.1 185.758 3491.11 172.877 3491.11 148.002ZM3647.66 207.968C3670.31 207.968 3689.86 196.419 3689.86 173.321C3689.86 153.555 3675.42 145.337 3659.43 139.341L3648.1 134.899C3637.66 131.123 3633.89 126.015 3633.89 120.019C3633.89 112.468 3640.11 107.582 3648.99 107.582C3656.99 107.582 3663.43 111.579 3666.76 120.907L3686.08 115.799C3682.08 98.92 3667.65 88.0375 3647.88 88.0375C3627 88.0375 3609.9 100.253 3609.9 119.797C3609.9 133.344 3617.9 145.115 3637 152.444L3649.44 157.108C3660.54 161.55 3665.43 165.992 3665.43 173.321C3665.43 183.537 3656.54 188.201 3647.44 188.201C3635.44 188.201 3628.11 180.428 3625.67 170.656L3605.68 176.208C3609.24 196.641 3625.45 207.968 3647.66 207.968ZM3746.9 207.079C3753.11 207.079 3760.67 205.969 3764.89 202.415V183.093C3760.67 184.648 3756.89 185.092 3754.22 185.092C3745.12 185.092 3741.57 179.984 3741.57 173.321V110.025H3764.89V90.2584H3741.57V60.7201H3716.91V90.2584H3700.92V110.025H3716.91V177.763C3716.91 198.418 3729.35 207.079 3746.9 207.079ZM3837.88 207.968C3857.42 207.968 3874.08 199.972 3884.07 187.535L3872.52 175.542C3864.08 183.537 3852.98 187.535 3840.54 187.535C3820.78 187.535 3805.01 177.319 3801.23 157.33H3891.85C3897.4 108.914 3865.42 88.0375 3836.1 88.0375C3806.78 88.0375 3778.13 109.136 3778.13 148.002C3778.13 186.425 3806.56 207.968 3837.88 207.968ZM3801.01 139.119C3804.56 118.686 3820.11 108.914 3836.32 108.914C3852.76 108.914 3868.75 119.13 3870.08 139.119H3801.01ZM3943.49 207.968C3966.15 207.968 3985.69 196.419 3985.69 173.321C3985.69 153.555 3971.25 145.337 3955.26 139.341L3943.94 134.899C3933.5 131.123 3929.72 126.015 3929.72 120.019C3929.72 112.468 3935.94 107.582 3944.83 107.582C3952.82 107.582 3959.26 111.579 3962.59 120.907L3981.91 115.799C3977.92 98.92 3963.48 88.0375 3943.72 88.0375C3922.84 88.0375 3905.74 100.253 3905.74 119.797C3905.74 133.344 3913.73 145.115 3932.83 152.444L3945.27 157.108C3956.37 161.55 3961.26 165.992 3961.26 173.321C3961.26 183.537 3952.38 188.201 3943.27 188.201C3931.28 188.201 3923.95 180.428 3921.51 170.656L3901.52 176.208C3905.07 196.641 3921.28 207.968 3943.49 207.968ZM4042.73 207.079C4048.95 207.079 4056.5 205.969 4060.72 202.415V183.093C4056.5 184.648 4052.72 185.092 4050.06 185.092C4040.95 185.092 4037.4 179.984 4037.4 173.321V110.025H4060.72V90.2584H4037.4V60.7201H4012.75V90.2584H3996.76V110.025H4012.75V177.763C4012.75 198.418 4025.18 207.079 4042.73 207.079ZM4127.23 205.747H4152.32V153.133H4180.96C4214.92 153.133 4236.23 131.821 4236.23 100.741C4236.23 69.4386 4214.92 48.1266 4180.96 48.1266H4127.23V205.747ZM4152.32 129.823V71.4366H4178.51C4197.83 71.4366 4210.7 80.5386 4210.7 100.741C4210.7 120.943 4197.83 129.823 4178.51 129.823H4152.32ZM4256.23 205.747H4280.65V151.801C4280.65 127.603 4295.52 111.619 4317.5 111.619C4320.16 111.619 4322.16 111.841 4324.6 112.285V88.9746C4322.16 88.3086 4319.94 88.0866 4317.28 88.0866C4296.19 88.0866 4284.64 102.739 4280.65 120.055V90.3066H4256.23V205.747ZM4394.74 207.967C4424.71 207.967 4455.13 186.877 4455.13 148.027C4455.13 109.177 4424.71 88.0866 4394.74 88.0866C4364.77 88.0866 4334.36 109.177 4334.36 148.027C4334.36 186.877 4364.77 207.967 4394.74 207.967ZM4358.56 148.027C4358.56 124.273 4375.87 110.509 4394.74 110.509C4413.61 110.509 4430.71 124.273 4430.71 148.027C4430.71 171.781 4413.61 185.545 4394.74 185.545C4375.87 185.545 4358.56 171.781 4358.56 148.027ZM4437.36 248.593H4444.25C4477.32 248.593 4494.64 235.939 4494.64 200.641V90.3066H4470V198.199C4470 221.065 4459.79 225.727 4443.14 225.727H4437.36V248.593ZM4470 70.1046H4494.64V48.1266H4470V70.1046ZM4572.93 207.967C4592.47 207.967 4609.12 199.975 4619.11 187.543L4607.57 175.555C4599.13 183.547 4588.03 187.543 4575.6 187.543C4555.84 187.543 4540.08 177.331 4536.3 157.351H4626.88C4632.43 108.955 4600.46 88.0866 4571.16 88.0866C4541.85 88.0866 4513.22 109.177 4513.22 148.027C4513.22 186.433 4541.63 207.967 4572.93 207.967ZM4536.08 139.147C4539.63 118.723 4555.17 108.955 4571.38 108.955C4587.81 108.955 4603.79 119.167 4605.12 139.147H4536.08ZM4701.29 207.967C4721.5 207.967 4740.14 198.199 4750.8 179.551L4732.6 168.229C4725.94 178.885 4714.61 185.545 4701.52 185.545C4682.87 185.545 4665.11 171.781 4665.11 148.027C4665.11 124.273 4682.87 110.509 4701.52 110.509C4714.61 110.509 4725.94 117.169 4732.6 127.825L4750.8 116.503C4740.14 97.6326 4721.5 88.0866 4701.29 88.0866C4671.1 88.0866 4640.91 109.177 4640.91 148.027C4640.91 186.877 4671.1 207.967 4701.29 207.967ZM4809.79 207.079C4816 207.079 4823.55 205.969 4827.77 202.417V183.103C4823.55 184.657 4819.78 185.101 4817.11 185.101C4808.01 185.101 4804.46 179.995 4804.46 173.335V110.065H4827.77V90.3066H4804.46V60.7806H4779.82V90.3066H4763.83V110.065H4779.82V177.775C4779.82 198.421 4792.25 207.079 4809.79 207.079ZM4883.16 207.967C4905.81 207.967 4925.34 196.423 4925.34 173.335C4925.34 153.577 4910.91 145.363 4894.93 139.369L4883.61 134.929C4873.17 131.155 4869.4 126.049 4869.4 120.055C4869.4 112.507 4875.61 107.623 4884.49 107.623C4892.49 107.623 4898.92 111.619 4902.25 120.943L4921.57 115.837C4917.57 98.9646 4903.14 88.0866 4883.38 88.0866C4862.52 88.0866 4845.42 100.297 4845.42 119.833C4845.42 133.375 4853.41 145.141 4872.51 152.467L4884.94 157.129C4896.04 161.569 4900.92 166.009 4900.92 173.335C4900.92 183.547 4892.04 188.209 4882.94 188.209C4870.95 188.209 4863.63 180.439 4861.18 170.671L4841.2 176.221C4844.76 196.645 4860.96 207.967 4883.16 207.967Z" fill="#1B171B"/>
<path d="M1705.97 205.746H1792.11L1793.44 192.648H1721.07L1736.39 48.1265H1722.62L1705.97 205.746ZM1863.08 207.966C1885.28 207.966 1902.81 195.978 1911.25 181.104H1911.92L1909.47 205.746H1923.02L1935 90.3065H1921.46L1919.02 114.948H1917.91C1912.8 100.074 1895.93 88.0865 1873.29 88.0865C1838.21 88.0865 1810.91 117.168 1810.91 154.242C1810.91 189.984 1835.99 207.966 1863.08 207.966ZM1824.67 153.354C1824.67 123.162 1847.09 100.518 1875.06 100.518C1897.04 100.518 1916.36 114.282 1916.36 142.698C1916.36 172.89 1893.93 195.534 1865.96 195.534C1843.76 195.534 1824.67 181.77 1824.67 153.354ZM1985.36 207.966C2007.78 207.966 2025.54 195.09 2025.54 173.778C2025.54 156.684 2014.22 148.692 1996.68 140.922L1989.36 137.814C1977.59 132.486 1972.71 126.492 1972.71 117.834C1972.71 106.068 1981.81 100.074 1993.8 100.074C2006.01 100.074 2013.11 106.068 2016.89 115.836L2027.99 112.284C2024.66 97.8545 2011.78 88.0865 1994.24 88.0865C1974.48 88.0865 1958.94 100.518 1958.94 118.5C1958.94 130.71 1966.27 141.144 1982.92 148.248L1991.13 151.8C2004.68 157.794 2012 163.122 2012 174.222C2012 189.762 1998.24 195.978 1985.81 195.978C1972.26 195.978 1961.39 188.43 1959.17 174L1947.18 177.33C1948.95 195.978 1964.05 207.966 1985.36 207.966ZM2073.74 207.078C2078.18 207.078 2083.07 206.412 2087.51 203.748L2088.62 192.648C2084.18 194.424 2080.62 194.868 2077.96 194.868C2070.19 194.868 2066.86 190.872 2067.53 183.324L2076.18 101.628H2098.61L2099.72 90.3065H2077.29L2080.4 60.7804H2066.86L2063.75 90.3065H2048.88L2047.77 101.628H2062.64L2053.76 186.21C2052.21 200.64 2060.42 207.078 2073.74 207.078ZM2164.03 207.966C2182.23 207.966 2199.1 200.862 2211.09 187.764L2204.21 180.66C2194.66 190.65 2181.12 195.978 2166.25 195.978C2142.27 195.978 2123.18 181.548 2123.18 153.132V152.91H2221.97C2230.18 109.62 2203.1 88.0865 2173.13 88.0865C2138.05 88.0865 2110.3 117.39 2110.3 154.242C2110.3 189.54 2135.17 207.966 2164.03 207.966ZM2124.29 142.032C2128.73 117.834 2147.82 100.074 2172.24 100.074C2194.44 100.074 2212.87 114.948 2211.09 142.032H2124.29ZM2270.45 207.966C2292.87 207.966 2310.63 195.09 2310.63 173.778C2310.63 156.684 2299.31 148.692 2281.77 140.922L2274.45 137.814C2262.68 132.486 2257.8 126.492 2257.8 117.834C2257.8 106.068 2266.9 100.074 2278.89 100.074C2291.1 100.074 2298.2 106.068 2301.97 115.836L2313.07 112.284C2309.74 97.8545 2296.87 88.0865 2279.33 88.0865C2259.57 88.0865 2244.03 100.518 2244.03 118.5C2244.03 130.71 2251.36 141.144 2268.01 148.248L2276.22 151.8C2289.76 157.794 2297.09 163.122 2297.09 174.222C2297.09 189.762 2283.33 195.978 2270.89 195.978C2257.35 195.978 2246.47 188.43 2244.25 174L2232.27 177.33C2234.04 195.978 2249.14 207.966 2270.45 207.966ZM2358.83 207.078C2363.27 207.078 2368.15 206.412 2372.59 203.748L2373.7 192.648C2369.26 194.424 2365.71 194.868 2363.05 194.868C2355.28 194.868 2351.95 190.872 2352.61 183.324L2361.27 101.628H2383.69L2384.8 90.3065H2362.38L2365.49 60.7804H2351.95L2348.84 90.3065H2333.97L2332.86 101.628H2347.73L2338.85 186.21C2337.3 200.64 2345.51 207.078 2358.83 207.078ZM2443.52 205.746H2457.28L2463.06 148.914H2498.58C2534.54 148.914 2557.41 125.382 2557.41 93.6365C2557.18 66.7744 2540.31 48.1265 2509.01 48.1265H2459.73L2443.52 205.746ZM2464.39 135.816L2472.16 61.2245H2506.57C2529.43 61.2245 2542.98 72.3245 2543.2 94.5244C2543.2 120.054 2525.44 135.816 2498.8 135.816H2464.39ZM2569.69 205.746H2583.23L2589.67 143.808V144.474C2592.33 117.39 2610.32 100.74 2632.52 100.74C2634.07 100.74 2635.85 100.962 2637.62 101.406L2638.95 88.7525C2637.4 88.3085 2635.4 88.0865 2632.74 88.0865C2612.31 88.0865 2598.99 101.184 2592.56 116.28L2595.22 90.3065H2581.68L2569.69 205.746ZM2699.28 207.966C2734.36 207.966 2764.11 178.662 2764.11 141.588C2764.11 106.068 2735.47 88.0865 2710.83 88.0865C2675.75 88.0865 2646 117.39 2646 154.686C2646 189.984 2674.42 207.966 2699.28 207.966ZM2659.32 154.464C2659.32 118.278 2687.96 100.296 2709.49 100.296C2729.03 100.296 2750.79 113.616 2750.79 141.81C2750.79 177.774 2722.15 195.756 2700.61 195.756C2681.08 195.756 2659.32 182.436 2659.32 154.464ZM2737.45 248.592H2741.89C2767.42 248.592 2786.07 239.49 2789.84 205.524L2801.83 90.3065H2788.29L2776.3 204.636C2773.64 230.166 2760.98 235.938 2743.45 235.938H2738.78L2737.45 248.592ZM2791.18 61.2245H2804.72L2806.27 48.1265H2792.73L2791.18 61.2245ZM2871.87 207.966C2890.07 207.966 2906.94 200.862 2918.93 187.764L2912.05 180.66C2902.5 190.65 2888.96 195.978 2874.09 195.978C2850.11 195.978 2831.02 181.548 2831.02 153.132V152.91H2929.81C2938.02 109.62 2910.94 88.0865 2880.97 88.0865C2845.89 88.0865 2818.14 117.39 2818.14 154.242C2818.14 189.54 2843.01 207.966 2871.87 207.966ZM2832.13 142.032C2836.57 117.834 2855.66 100.074 2880.08 100.074C2902.28 100.074 2920.71 114.948 2918.93 142.032H2832.13ZM3001.52 207.966C3021.95 207.966 3041.04 198.198 3053.03 179.55L3043.04 173.556C3033.71 187.764 3018.84 195.534 3002.86 195.534C2981.1 195.534 2961.12 180.882 2961.12 152.244C2961.12 119.61 2986.87 100.518 3011.74 100.518C3027.5 100.518 3042.15 108.288 3048.59 122.496L3059.69 116.502C3051.47 97.8545 3032.83 88.0865 3011.96 88.0865C2976.22 88.0865 2947.36 117.168 2947.36 154.02C2947.36 188.874 2973.11 207.966 3001.52 207.966ZM3103.09 207.078C3107.53 207.078 3112.42 206.412 3116.86 203.748L3117.97 192.648C3113.53 194.424 3109.98 194.868 3107.31 194.868C3099.54 194.868 3096.21 190.872 3096.88 183.324L3105.54 101.628H3127.96L3129.07 90.3065H3106.65L3109.75 60.7804H3096.21L3093.1 90.3065H3078.23L3077.12 101.628H3091.99L3083.11 186.21C3081.56 200.64 3089.77 207.078 3103.09 207.078ZM3173.19 207.966C3195.61 207.966 3213.37 195.09 3213.37 173.778C3213.37 156.684 3202.05 148.692 3184.51 140.922L3177.19 137.814C3165.42 132.486 3160.54 126.492 3160.54 117.834C3160.54 106.068 3169.64 100.074 3181.63 100.074C3193.84 100.074 3200.94 106.068 3204.72 115.836L3215.82 112.284C3212.49 97.8545 3199.61 88.0865 3182.07 88.0865C3162.31 88.0865 3146.77 100.518 3146.77 118.5C3146.77 130.71 3154.1 141.144 3170.75 148.248L3178.96 151.8C3192.51 157.794 3199.83 163.122 3199.83 174.222C3199.83 189.762 3186.07 195.978 3173.64 195.978C3160.09 195.978 3149.22 188.43 3147 174L3135.01 177.33C3136.78 195.978 3151.88 207.966 3173.19 207.966Z" fill="#1B171B"/>
<path d="M5062.56 205.746H5148.69L5150.03 192.648H5077.65L5092.97 48.1265H5079.21L5062.56 205.746ZM5219.66 207.966C5241.86 207.966 5259.4 195.978 5267.84 181.104H5268.5L5266.06 205.746H5279.6L5291.59 90.3065H5278.05L5275.61 114.948H5274.5C5269.39 100.074 5252.52 88.0865 5229.87 88.0865C5194.8 88.0865 5167.49 117.168 5167.49 154.242C5167.49 189.984 5192.58 207.966 5219.66 207.966ZM5181.26 153.354C5181.26 123.162 5203.68 100.518 5231.65 100.518C5253.63 100.518 5272.94 114.282 5272.94 142.698C5272.94 172.89 5250.52 195.534 5222.55 195.534C5200.35 195.534 5181.26 181.77 5181.26 153.354ZM5341.95 207.966C5364.37 207.966 5382.13 195.09 5382.13 173.778C5382.13 156.684 5370.81 148.692 5353.27 140.922L5345.94 137.814C5334.18 132.486 5329.29 126.492 5329.29 117.834C5329.29 106.068 5338.4 100.074 5350.38 100.074C5362.59 100.074 5369.7 106.068 5373.47 115.836L5384.57 112.284C5381.24 97.8545 5368.37 88.0865 5350.83 88.0865C5331.07 88.0865 5315.53 100.518 5315.53 118.5C5315.53 130.71 5322.86 141.144 5339.51 148.248L5347.72 151.8C5361.26 157.794 5368.59 163.122 5368.59 174.222C5368.59 189.762 5354.82 195.978 5342.39 195.978C5328.85 195.978 5317.97 188.43 5315.75 174L5303.76 177.33C5305.54 195.978 5320.64 207.966 5341.95 207.966ZM5430.33 207.078C5434.77 207.078 5439.65 206.412 5444.09 203.748L5445.2 192.648C5440.76 194.424 5437.21 194.868 5434.55 194.868C5426.78 194.868 5423.45 190.872 5424.11 183.324L5432.77 101.628H5455.19L5456.3 90.3065H5433.88L5436.99 60.7804H5423.45L5420.34 90.3065H5405.46L5404.35 101.628H5419.23L5410.35 186.21C5408.79 200.64 5417.01 207.078 5430.33 207.078ZM5520.61 207.966C5538.82 207.966 5555.69 200.862 5567.68 187.764L5560.79 180.66C5551.25 190.65 5537.71 195.978 5522.83 195.978C5498.86 195.978 5479.76 181.548 5479.76 153.132V152.91H5578.55C5586.77 109.62 5559.68 88.0865 5529.71 88.0865C5494.64 88.0865 5466.89 117.39 5466.89 154.242C5466.89 189.54 5491.75 207.966 5520.61 207.966ZM5480.87 142.032C5485.31 117.834 5504.41 100.074 5528.83 100.074C5551.03 100.074 5569.45 114.948 5567.68 142.032H5480.87ZM5627.04 207.966C5649.46 207.966 5667.22 195.09 5667.22 173.778C5667.22 156.684 5655.9 148.692 5638.36 140.922L5631.03 137.814C5619.27 132.486 5614.38 126.492 5614.38 117.834C5614.38 106.068 5623.48 100.074 5635.47 100.074C5647.68 100.074 5654.79 106.068 5658.56 115.836L5669.66 112.284C5666.33 97.8545 5653.45 88.0865 5635.92 88.0865C5616.16 88.0865 5600.62 100.518 5600.62 118.5C5600.62 130.71 5607.94 141.144 5624.59 148.248L5632.81 151.8C5646.35 157.794 5653.68 163.122 5653.68 174.222C5653.68 189.762 5639.91 195.978 5627.48 195.978C5613.94 195.978 5603.06 188.43 5600.84 174L5588.85 177.33C5590.63 195.978 5605.72 207.966 5627.04 207.966ZM5715.42 207.078C5719.86 207.078 5724.74 206.412 5729.18 203.748L5730.29 192.648C5725.85 194.424 5722.3 194.868 5719.63 194.868C5711.86 194.868 5708.53 190.872 5709.2 183.324L5717.86 101.628H5740.28L5741.39 90.3065H5718.97L5722.08 60.7804H5708.53L5705.43 90.3065H5690.55L5689.44 101.628H5704.32L5695.44 186.21C5693.88 200.64 5702.1 207.078 5715.42 207.078ZM5800.11 205.746H5813.87L5819.64 148.914H5855.16C5891.13 148.914 5913.99 125.382 5913.99 93.6365C5913.77 66.7744 5896.9 48.1265 5865.6 48.1265H5816.31L5800.11 205.746ZM5820.97 135.816L5828.74 61.2245H5863.15C5886.02 61.2245 5899.56 72.3245 5899.78 94.5244C5899.78 120.054 5882.02 135.816 5855.38 135.816H5820.97ZM5926.28 205.746H5939.82L5946.26 143.808V144.474C5948.92 117.39 5966.9 100.74 5989.1 100.74C5990.66 100.74 5992.43 100.962 5994.21 101.406L5995.54 88.7525C5993.99 88.3085 5991.99 88.0865 5989.32 88.0865C5968.9 88.0865 5955.58 101.184 5949.14 116.28L5951.81 90.3065H5938.26L5926.28 205.746ZM6055.87 207.966C6090.94 207.966 6120.69 178.662 6120.69 141.588C6120.69 106.068 6092.05 88.0865 6067.41 88.0865C6032.34 88.0865 6002.59 117.39 6002.59 154.686C6002.59 189.984 6031 207.966 6055.87 207.966ZM6015.91 154.464C6015.91 118.278 6044.55 100.296 6066.08 100.296C6085.62 100.296 6107.37 113.616 6107.37 141.81C6107.37 177.774 6078.73 195.756 6057.2 195.756C6037.66 195.756 6015.91 182.436 6015.91 154.464ZM6094.04 248.592H6098.48C6124.01 248.592 6142.66 239.49 6146.43 205.524L6158.42 90.3065H6144.88L6132.89 204.636C6130.22 230.166 6117.57 235.938 6100.03 235.938H6095.37L6094.04 248.592ZM6147.76 61.2245H6161.3L6162.86 48.1265H6149.32L6147.76 61.2245ZM6228.45 207.966C6246.66 207.966 6263.53 200.862 6275.52 187.764L6268.64 180.66C6259.09 190.65 6245.55 195.978 6230.67 195.978C6206.7 195.978 6187.61 181.548 6187.61 153.132V152.91H6286.4C6294.61 109.62 6267.53 88.0865 6237.56 88.0865C6202.48 88.0865 6174.73 117.39 6174.73 154.242C6174.73 189.54 6199.59 207.966 6228.45 207.966ZM6188.72 142.032C6193.16 117.834 6212.25 100.074 6236.67 100.074C6258.87 100.074 6277.29 114.948 6275.52 142.032H6188.72ZM6358.11 207.966C6378.53 207.966 6397.63 198.198 6409.61 179.55L6399.62 173.556C6390.3 187.764 6375.43 195.534 6359.44 195.534C6337.69 195.534 6317.71 180.882 6317.71 152.244C6317.71 119.61 6343.46 100.518 6368.32 100.518C6384.08 100.518 6398.74 108.288 6405.17 122.496L6416.27 116.502C6408.06 97.8545 6389.41 88.0865 6368.54 88.0865C6332.8 88.0865 6303.94 117.168 6303.94 154.02C6303.94 188.874 6329.69 207.966 6358.11 207.966ZM6459.68 207.078C6464.12 207.078 6469 206.412 6473.44 203.748L6474.55 192.648C6470.11 194.424 6466.56 194.868 6463.9 194.868C6456.13 194.868 6452.8 190.872 6453.46 183.324L6462.12 101.628H6484.54L6485.65 90.3065H6463.23L6466.34 60.7804H6452.8L6449.69 90.3065H6434.82L6433.71 101.628H6448.58L6439.7 186.21C6438.15 200.64 6446.36 207.078 6459.68 207.078ZM6529.78 207.966C6552.2 207.966 6569.96 195.09 6569.96 173.778C6569.96 156.684 6558.64 148.692 6541.1 140.922L6533.77 137.814C6522.01 132.486 6517.12 126.492 6517.12 117.834C6517.12 106.068 6526.23 100.074 6538.21 100.074C6550.42 100.074 6557.53 106.068 6561.3 115.836L6572.4 112.284C6569.07 97.8545 6556.2 88.0865 6538.66 88.0865C6518.9 88.0865 6503.36 100.518 6503.36 118.5C6503.36 130.71 6510.69 141.144 6527.34 148.248L6535.55 151.8C6549.09 157.794 6556.42 163.122 6556.42 174.222C6556.42 189.762 6542.65 195.978 6530.22 195.978C6516.68 195.978 6505.8 188.43 6503.58 174L6491.59 177.33C6493.37 195.978 6508.47 207.966 6529.78 207.966Z" fill="#1B171B"/>
<circle cx="1641.86" cy="143.447" r="22.4473" fill="#0303FC"/>
<circle cx="4998.45" cy="143.447" r="22.4473" fill="#0303FC"/>
<circle cx="3291.45" cy="143.447" r="22.4473" fill="#0303FC"/>
</svg>
