<svg width="6583" height="248" viewBox="0 0 6583 248" fill="none" xmlns="http://www.w3.org/2000/svg">
<path d="M12.2151 205H102.385V181.68H37.3116V47.3143H12.2151V205ZM165.869 207.221C186.967 207.221 201.625 195.672 205.845 186.566H206.511V205H230.942V89.5119H206.511V107.946H205.845C201.625 98.8398 186.967 87.291 165.869 87.291C138.551 87.291 109.901 107.501 109.901 147.256C109.901 187.011 138.551 207.221 165.869 207.221ZM134.109 147.256C134.109 122.382 152.099 109.5 170.532 109.5C189.188 109.5 207.178 122.382 207.178 147.256C207.178 172.13 189.188 185.012 170.532 185.012C152.099 185.012 134.109 172.13 134.109 147.256ZM290.659 207.221C313.312 207.221 332.856 195.672 332.856 172.575C332.856 152.808 318.42 144.591 302.429 138.594L291.103 134.153C280.664 130.377 276.889 125.269 276.889 119.272C276.889 111.721 283.107 106.835 291.991 106.835C299.986 106.835 306.427 110.833 309.759 120.161L329.081 115.053C325.083 98.1735 310.647 87.291 290.881 87.291C270.004 87.291 252.903 99.5061 252.903 119.05C252.903 132.598 260.898 144.369 279.998 151.698L292.435 156.362C303.54 160.804 308.426 165.246 308.426 172.575C308.426 182.791 299.542 187.455 290.436 187.455C278.443 187.455 271.114 179.682 268.671 169.909L248.683 175.462C252.237 195.894 268.449 207.221 290.659 207.221ZM389.896 206.333C396.114 206.333 403.666 205.222 407.885 201.669V182.347C403.666 183.901 399.89 184.346 397.225 184.346C388.119 184.346 384.566 179.237 384.566 172.575V109.278H407.885V89.5119H384.566V59.9736H359.913V89.5119H343.923V109.278H359.913V177.016C359.913 197.671 372.35 206.333 389.896 206.333ZM480.877 207.221C500.422 207.221 517.079 199.226 527.073 186.789L515.524 174.796C507.084 182.791 495.98 186.789 483.543 186.789C463.776 186.789 448.008 176.572 444.232 156.584H534.846C540.398 108.168 508.417 87.291 479.101 87.291C449.784 87.291 421.135 108.39 421.135 147.256C421.135 185.678 449.562 207.221 480.877 207.221ZM444.01 138.372C447.564 117.94 463.11 108.168 479.323 108.168C495.758 108.168 511.748 118.384 513.081 138.372H444.01ZM586.493 207.221C609.146 207.221 628.691 195.672 628.691 172.575C628.691 152.808 614.255 144.591 598.264 138.594L586.937 134.153C576.499 130.377 572.723 125.269 572.723 119.272C572.723 111.721 578.942 106.835 587.825 106.835C595.821 106.835 602.261 110.833 605.593 120.161L624.915 115.053C620.917 98.1735 606.481 87.291 586.715 87.291C565.838 87.291 548.737 99.5061 548.737 119.05C548.737 132.598 556.733 144.369 575.832 151.698L588.27 156.362C599.374 160.804 604.26 165.246 604.26 172.575C604.26 182.791 595.377 187.455 586.271 187.455C574.278 187.455 566.949 179.682 564.506 169.909L544.517 175.462C548.071 195.894 564.284 207.221 586.493 207.221ZM685.73 206.333C691.949 206.333 699.5 205.222 703.72 201.669V182.347C699.5 183.901 695.724 184.346 693.059 184.346C683.953 184.346 680.4 179.237 680.4 172.575V109.278H703.72V89.5119H680.4V59.9736H655.748V89.5119H639.757V109.278H655.748V177.016C655.748 197.671 668.185 206.333 685.73 206.333ZM770.231 205H795.317V152.386H823.955C857.921 152.386 879.233 131.074 879.233 99.9941C879.233 68.6921 857.921 47.3801 823.955 47.3801H770.231V205ZM795.317 129.076V70.6901H821.513C840.827 70.6901 853.703 79.7921 853.703 99.9941C853.703 120.196 840.827 129.076 821.513 129.076H795.317ZM899.225 205H923.645V151.054C923.645 126.856 938.519 110.872 960.497 110.872C963.161 110.872 965.159 111.094 967.601 111.538V88.2281C965.159 87.5621 962.939 87.3401 960.275 87.3401C939.185 87.3401 927.641 101.992 923.645 119.308V89.5601H899.225V205ZM1037.74 207.22C1067.71 207.22 1098.13 186.13 1098.13 147.28C1098.13 108.43 1067.71 87.3401 1037.74 87.3401C1007.77 87.3401 977.359 108.43 977.359 147.28C977.359 186.13 1007.77 207.22 1037.74 207.22ZM1001.56 147.28C1001.56 123.526 1018.87 109.762 1037.74 109.762C1056.61 109.762 1073.71 123.526 1073.71 147.28C1073.71 171.034 1056.61 184.798 1037.74 184.798C1018.87 184.798 1001.56 171.034 1001.56 147.28ZM1080.36 247.846H1087.25C1120.32 247.846 1137.64 235.192 1137.64 199.894V89.5601H1113V197.452C1113 220.318 1102.79 224.98 1086.14 224.98H1080.36V247.846ZM1113 69.3581H1137.64V47.3801H1113V69.3581ZM1215.93 207.22C1235.47 207.22 1252.12 199.228 1262.11 186.796L1250.57 174.808C1242.13 182.8 1231.03 186.796 1218.6 186.796C1198.84 186.796 1183.08 176.584 1179.3 156.604H1269.88C1275.43 108.208 1243.46 87.3401 1214.16 87.3401C1184.85 87.3401 1156.22 108.43 1156.22 147.28C1156.22 185.686 1184.63 207.22 1215.93 207.22ZM1179.08 138.4C1182.63 117.976 1198.17 108.208 1214.38 108.208C1230.81 108.208 1246.79 118.42 1248.12 138.4H1179.08ZM1344.29 207.22C1364.5 207.22 1383.14 197.452 1393.8 178.804L1375.6 167.482C1368.94 178.138 1357.61 184.798 1344.52 184.798C1325.87 184.798 1308.11 171.034 1308.11 147.28C1308.11 123.526 1325.87 109.762 1344.52 109.762C1357.61 109.762 1368.94 116.422 1375.6 127.078L1393.8 115.756C1383.14 96.8861 1364.5 87.3401 1344.29 87.3401C1314.1 87.3401 1283.91 108.43 1283.91 147.28C1283.91 186.13 1314.1 207.22 1344.29 207.22ZM1452.79 206.332C1459 206.332 1466.55 205.222 1470.77 201.67V182.356C1466.55 183.91 1462.78 184.354 1460.11 184.354C1451.01 184.354 1447.46 179.248 1447.46 172.588V109.318H1470.77V89.5601H1447.46V60.0341H1422.82V89.5601H1406.83V109.318H1422.82V177.028C1422.82 197.674 1435.25 206.332 1452.79 206.332ZM1526.16 207.22C1548.81 207.22 1568.34 195.676 1568.34 172.588C1568.34 152.83 1553.91 144.616 1537.93 138.622L1526.61 134.182C1516.17 130.408 1512.4 125.302 1512.4 119.308C1512.4 111.76 1518.61 106.876 1527.49 106.876C1535.49 106.876 1541.92 110.872 1545.25 120.196L1564.57 115.09C1560.57 98.2181 1546.14 87.3401 1526.38 87.3401C1505.52 87.3401 1488.42 99.5501 1488.42 119.086C1488.42 132.628 1496.41 144.394 1515.51 151.72L1527.94 156.382C1539.04 160.822 1543.92 165.262 1543.92 172.588C1543.92 182.8 1535.04 187.462 1525.94 187.462C1513.95 187.462 1506.63 179.692 1504.18 169.924L1484.2 175.474C1487.76 195.898 1503.96 207.22 1526.16 207.22Z" fill="#FCFDFC"/>
<path d="M3369.22 205H3459.38V181.68H3394.31V47.3143H3369.22V205ZM3522.87 207.221C3543.97 207.221 3558.63 195.672 3562.85 186.566H3563.51V205H3587.94V89.5119H3563.51V107.946H3562.85C3558.63 98.8398 3543.97 87.291 3522.87 87.291C3495.55 87.291 3466.9 107.501 3466.9 147.256C3466.9 187.011 3495.55 207.221 3522.87 207.221ZM3491.11 147.256C3491.11 122.382 3509.1 109.5 3527.53 109.5C3546.19 109.5 3564.18 122.382 3564.18 147.256C3564.18 172.13 3546.19 185.012 3527.53 185.012C3509.1 185.012 3491.11 172.13 3491.11 147.256ZM3647.66 207.221C3670.31 207.221 3689.86 195.672 3689.86 172.575C3689.86 152.808 3675.42 144.591 3659.43 138.594L3648.1 134.153C3637.66 130.377 3633.89 125.269 3633.89 119.272C3633.89 111.721 3640.11 106.835 3648.99 106.835C3656.99 106.835 3663.43 110.833 3666.76 120.161L3686.08 115.053C3682.08 98.1735 3667.65 87.291 3647.88 87.291C3627 87.291 3609.9 99.5061 3609.9 119.05C3609.9 132.598 3617.9 144.369 3637 151.698L3649.44 156.362C3660.54 160.804 3665.43 165.246 3665.43 172.575C3665.43 182.791 3656.54 187.455 3647.44 187.455C3635.44 187.455 3628.11 179.682 3625.67 169.909L3605.68 175.462C3609.24 195.894 3625.45 207.221 3647.66 207.221ZM3746.9 206.333C3753.11 206.333 3760.67 205.222 3764.89 201.669V182.347C3760.67 183.901 3756.89 184.346 3754.22 184.346C3745.12 184.346 3741.57 179.237 3741.57 172.575V109.278H3764.89V89.5119H3741.57V59.9736H3716.91V89.5119H3700.92V109.278H3716.91V177.016C3716.91 197.671 3729.35 206.333 3746.9 206.333ZM3837.88 207.221C3857.42 207.221 3874.08 199.226 3884.07 186.789L3872.52 174.796C3864.08 182.791 3852.98 186.789 3840.54 186.789C3820.78 186.789 3805.01 176.572 3801.23 156.584H3891.85C3897.4 108.168 3865.42 87.291 3836.1 87.291C3806.78 87.291 3778.13 108.39 3778.13 147.256C3778.13 185.678 3806.56 207.221 3837.88 207.221ZM3801.01 138.372C3804.56 117.94 3820.11 108.168 3836.32 108.168C3852.76 108.168 3868.75 118.384 3870.08 138.372H3801.01ZM3943.49 207.221C3966.15 207.221 3985.69 195.672 3985.69 172.575C3985.69 152.808 3971.25 144.591 3955.26 138.594L3943.94 134.153C3933.5 130.377 3929.72 125.269 3929.72 119.272C3929.72 111.721 3935.94 106.835 3944.83 106.835C3952.82 106.835 3959.26 110.833 3962.59 120.161L3981.91 115.053C3977.92 98.1735 3963.48 87.291 3943.72 87.291C3922.84 87.291 3905.74 99.5061 3905.74 119.05C3905.74 132.598 3913.73 144.369 3932.83 151.698L3945.27 156.362C3956.37 160.804 3961.26 165.246 3961.26 172.575C3961.26 182.791 3952.38 187.455 3943.27 187.455C3931.28 187.455 3923.95 179.682 3921.51 169.909L3901.52 175.462C3905.07 195.894 3921.28 207.221 3943.49 207.221ZM4042.73 206.333C4048.95 206.333 4056.5 205.222 4060.72 201.669V182.347C4056.5 183.901 4052.72 184.346 4050.06 184.346C4040.95 184.346 4037.4 179.237 4037.4 172.575V109.278H4060.72V89.5119H4037.4V59.9736H4012.75V89.5119H3996.76V109.278H4012.75V177.016C4012.75 197.671 4025.18 206.333 4042.73 206.333ZM4127.23 205H4152.32V152.386H4180.96C4214.92 152.386 4236.23 131.074 4236.23 99.9941C4236.23 68.6921 4214.92 47.3801 4180.96 47.3801H4127.23V205ZM4152.32 129.076V70.6901H4178.51C4197.83 70.6901 4210.7 79.7921 4210.7 99.9941C4210.7 120.196 4197.83 129.076 4178.51 129.076H4152.32ZM4256.23 205H4280.65V151.054C4280.65 126.856 4295.52 110.872 4317.5 110.872C4320.16 110.872 4322.16 111.094 4324.6 111.538V88.2281C4322.16 87.5621 4319.94 87.3401 4317.28 87.3401C4296.19 87.3401 4284.64 101.992 4280.65 119.308V89.5601H4256.23V205ZM4394.74 207.22C4424.71 207.22 4455.13 186.13 4455.13 147.28C4455.13 108.43 4424.71 87.3401 4394.74 87.3401C4364.77 87.3401 4334.36 108.43 4334.36 147.28C4334.36 186.13 4364.77 207.22 4394.74 207.22ZM4358.56 147.28C4358.56 123.526 4375.87 109.762 4394.74 109.762C4413.61 109.762 4430.71 123.526 4430.71 147.28C4430.71 171.034 4413.61 184.798 4394.74 184.798C4375.87 184.798 4358.56 171.034 4358.56 147.28ZM4437.36 247.846H4444.25C4477.32 247.846 4494.64 235.192 4494.64 199.894V89.5601H4470V197.452C4470 220.318 4459.79 224.98 4443.14 224.98H4437.36V247.846ZM4470 69.3581H4494.64V47.3801H4470V69.3581ZM4572.93 207.22C4592.47 207.22 4609.12 199.228 4619.11 186.796L4607.57 174.808C4599.13 182.8 4588.03 186.796 4575.6 186.796C4555.84 186.796 4540.08 176.584 4536.3 156.604H4626.88C4632.43 108.208 4600.46 87.3401 4571.16 87.3401C4541.85 87.3401 4513.22 108.43 4513.22 147.28C4513.22 185.686 4541.63 207.22 4572.93 207.22ZM4536.08 138.4C4539.63 117.976 4555.17 108.208 4571.38 108.208C4587.81 108.208 4603.79 118.42 4605.12 138.4H4536.08ZM4701.29 207.22C4721.5 207.22 4740.14 197.452 4750.8 178.804L4732.6 167.482C4725.94 178.138 4714.61 184.798 4701.52 184.798C4682.87 184.798 4665.11 171.034 4665.11 147.28C4665.11 123.526 4682.87 109.762 4701.52 109.762C4714.61 109.762 4725.94 116.422 4732.6 127.078L4750.8 115.756C4740.14 96.8861 4721.5 87.3401 4701.29 87.3401C4671.1 87.3401 4640.91 108.43 4640.91 147.28C4640.91 186.13 4671.1 207.22 4701.29 207.22ZM4809.79 206.332C4816 206.332 4823.55 205.222 4827.77 201.67V182.356C4823.55 183.91 4819.78 184.354 4817.11 184.354C4808.01 184.354 4804.46 179.248 4804.46 172.588V109.318H4827.77V89.5601H4804.46V60.0341H4779.82V89.5601H4763.83V109.318H4779.82V177.028C4779.82 197.674 4792.25 206.332 4809.79 206.332ZM4883.16 207.22C4905.81 207.22 4925.34 195.676 4925.34 172.588C4925.34 152.83 4910.91 144.616 4894.93 138.622L4883.61 134.182C4873.17 130.408 4869.4 125.302 4869.4 119.308C4869.4 111.76 4875.61 106.876 4884.49 106.876C4892.49 106.876 4898.92 110.872 4902.25 120.196L4921.57 115.09C4917.57 98.2181 4903.14 87.3401 4883.38 87.3401C4862.52 87.3401 4845.42 99.5501 4845.42 119.086C4845.42 132.628 4853.41 144.394 4872.51 151.72L4884.94 156.382C4896.04 160.822 4900.92 165.262 4900.92 172.588C4900.92 182.8 4892.04 187.462 4882.94 187.462C4870.95 187.462 4863.63 179.692 4861.18 169.924L4841.2 175.474C4844.76 195.898 4860.96 207.22 4883.16 207.22Z" fill="#FCFDFC"/>
<path d="M1705.97 205H1792.11L1793.44 191.902H1721.07L1736.39 47.38H1722.62L1705.97 205ZM1863.08 207.22C1885.28 207.22 1902.81 195.232 1911.25 180.358H1911.92L1909.47 205H1923.02L1935 89.56H1921.46L1919.02 114.202H1917.91C1912.8 99.328 1895.93 87.34 1873.29 87.34C1838.21 87.34 1810.91 116.422 1810.91 153.496C1810.91 189.238 1835.99 207.22 1863.08 207.22ZM1824.67 152.608C1824.67 122.416 1847.09 99.772 1875.06 99.772C1897.04 99.772 1916.36 113.536 1916.36 141.952C1916.36 172.144 1893.93 194.788 1865.96 194.788C1843.76 194.788 1824.67 181.024 1824.67 152.608ZM1985.36 207.22C2007.78 207.22 2025.54 194.344 2025.54 173.032C2025.54 155.938 2014.22 147.946 1996.68 140.176L1989.36 137.068C1977.59 131.74 1972.71 125.746 1972.71 117.088C1972.71 105.322 1981.81 99.328 1993.8 99.328C2006.01 99.328 2013.11 105.322 2016.89 115.09L2027.99 111.538C2024.66 97.108 2011.78 87.34 1994.24 87.34C1974.48 87.34 1958.94 99.772 1958.94 117.754C1958.94 129.964 1966.27 140.398 1982.92 147.502L1991.13 151.054C2004.68 157.048 2012 162.376 2012 173.476C2012 189.016 1998.24 195.232 1985.81 195.232C1972.26 195.232 1961.39 187.684 1959.17 173.254L1947.18 176.584C1948.95 195.232 1964.05 207.22 1985.36 207.22ZM2073.74 206.332C2078.18 206.332 2083.07 205.666 2087.51 203.002L2088.62 191.902C2084.18 193.678 2080.62 194.122 2077.96 194.122C2070.19 194.122 2066.86 190.126 2067.53 182.578L2076.18 100.882H2098.61L2099.72 89.56H2077.29L2080.4 60.034H2066.86L2063.75 89.56H2048.88L2047.77 100.882H2062.64L2053.76 185.464C2052.21 199.894 2060.42 206.332 2073.74 206.332ZM2164.03 207.22C2182.23 207.22 2199.1 200.116 2211.09 187.018L2204.21 179.914C2194.66 189.904 2181.12 195.232 2166.25 195.232C2142.27 195.232 2123.18 180.802 2123.18 152.386V152.164H2221.97C2230.18 108.874 2203.1 87.34 2173.13 87.34C2138.05 87.34 2110.3 116.644 2110.3 153.496C2110.3 188.794 2135.17 207.22 2164.03 207.22ZM2124.29 141.286C2128.73 117.088 2147.82 99.328 2172.24 99.328C2194.44 99.328 2212.87 114.202 2211.09 141.286H2124.29ZM2270.45 207.22C2292.87 207.22 2310.63 194.344 2310.63 173.032C2310.63 155.938 2299.31 147.946 2281.77 140.176L2274.45 137.068C2262.68 131.74 2257.8 125.746 2257.8 117.088C2257.8 105.322 2266.9 99.328 2278.89 99.328C2291.1 99.328 2298.2 105.322 2301.97 115.09L2313.07 111.538C2309.74 97.108 2296.87 87.34 2279.33 87.34C2259.57 87.34 2244.03 99.772 2244.03 117.754C2244.03 129.964 2251.36 140.398 2268.01 147.502L2276.22 151.054C2289.76 157.048 2297.09 162.376 2297.09 173.476C2297.09 189.016 2283.33 195.232 2270.89 195.232C2257.35 195.232 2246.47 187.684 2244.25 173.254L2232.27 176.584C2234.04 195.232 2249.14 207.22 2270.45 207.22ZM2358.83 206.332C2363.27 206.332 2368.15 205.666 2372.59 203.002L2373.7 191.902C2369.26 193.678 2365.71 194.122 2363.05 194.122C2355.28 194.122 2351.95 190.126 2352.61 182.578L2361.27 100.882H2383.69L2384.8 89.56H2362.38L2365.49 60.034H2351.95L2348.84 89.56H2333.97L2332.86 100.882H2347.73L2338.85 185.464C2337.3 199.894 2345.51 206.332 2358.83 206.332ZM2443.52 205H2457.28L2463.06 148.168H2498.58C2534.54 148.168 2557.41 124.636 2557.41 92.89C2557.18 66.028 2540.31 47.38 2509.01 47.38H2459.73L2443.52 205ZM2464.39 135.07L2472.16 60.478H2506.57C2529.43 60.478 2542.98 71.578 2543.2 93.778C2543.2 119.308 2525.44 135.07 2498.8 135.07H2464.39ZM2569.69 205H2583.23L2589.67 143.062V143.728C2592.33 116.644 2610.32 99.994 2632.52 99.994C2634.07 99.994 2635.85 100.216 2637.62 100.66L2638.95 88.006C2637.4 87.562 2635.4 87.34 2632.74 87.34C2612.31 87.34 2598.99 100.438 2592.56 115.534L2595.22 89.56H2581.68L2569.69 205ZM2699.28 207.22C2734.36 207.22 2764.11 177.916 2764.11 140.842C2764.11 105.322 2735.47 87.34 2710.83 87.34C2675.75 87.34 2646 116.644 2646 153.94C2646 189.238 2674.42 207.22 2699.28 207.22ZM2659.32 153.718C2659.32 117.532 2687.96 99.55 2709.49 99.55C2729.03 99.55 2750.79 112.87 2750.79 141.064C2750.79 177.028 2722.15 195.01 2700.61 195.01C2681.08 195.01 2659.32 181.69 2659.32 153.718ZM2737.45 247.846H2741.89C2767.42 247.846 2786.07 238.744 2789.84 204.778L2801.83 89.56H2788.29L2776.3 203.89C2773.64 229.42 2760.98 235.192 2743.45 235.192H2738.78L2737.45 247.846ZM2791.18 60.478H2804.72L2806.27 47.38H2792.73L2791.18 60.478ZM2871.87 207.22C2890.07 207.22 2906.94 200.116 2918.93 187.018L2912.05 179.914C2902.5 189.904 2888.96 195.232 2874.09 195.232C2850.11 195.232 2831.02 180.802 2831.02 152.386V152.164H2929.81C2938.02 108.874 2910.94 87.34 2880.97 87.34C2845.89 87.34 2818.14 116.644 2818.14 153.496C2818.14 188.794 2843.01 207.22 2871.87 207.22ZM2832.13 141.286C2836.57 117.088 2855.66 99.328 2880.08 99.328C2902.28 99.328 2920.71 114.202 2918.93 141.286H2832.13ZM3001.52 207.22C3021.95 207.22 3041.04 197.452 3053.03 178.804L3043.04 172.81C3033.71 187.018 3018.84 194.788 3002.86 194.788C2981.1 194.788 2961.12 180.136 2961.12 151.498C2961.12 118.864 2986.87 99.772 3011.74 99.772C3027.5 99.772 3042.15 107.542 3048.59 121.75L3059.69 115.756C3051.47 97.108 3032.83 87.34 3011.96 87.34C2976.22 87.34 2947.36 116.422 2947.36 153.274C2947.36 188.128 2973.11 207.22 3001.52 207.22ZM3103.09 206.332C3107.53 206.332 3112.42 205.666 3116.86 203.002L3117.97 191.902C3113.53 193.678 3109.98 194.122 3107.31 194.122C3099.54 194.122 3096.21 190.126 3096.88 182.578L3105.54 100.882H3127.96L3129.07 89.56H3106.65L3109.75 60.034H3096.21L3093.1 89.56H3078.23L3077.12 100.882H3091.99L3083.11 185.464C3081.56 199.894 3089.77 206.332 3103.09 206.332ZM3173.19 207.22C3195.61 207.22 3213.37 194.344 3213.37 173.032C3213.37 155.938 3202.05 147.946 3184.51 140.176L3177.19 137.068C3165.42 131.74 3160.54 125.746 3160.54 117.088C3160.54 105.322 3169.64 99.328 3181.63 99.328C3193.84 99.328 3200.94 105.322 3204.72 115.09L3215.82 111.538C3212.49 97.108 3199.61 87.34 3182.07 87.34C3162.31 87.34 3146.77 99.772 3146.77 117.754C3146.77 129.964 3154.1 140.398 3170.75 147.502L3178.96 151.054C3192.51 157.048 3199.83 162.376 3199.83 173.476C3199.83 189.016 3186.07 195.232 3173.64 195.232C3160.09 195.232 3149.22 187.684 3147 173.254L3135.01 176.584C3136.78 195.232 3151.88 207.22 3173.19 207.22Z" fill="#FCFDFC"/>
<path d="M5062.56 205H5148.69L5150.03 191.902H5077.65L5092.97 47.38H5079.21L5062.56 205ZM5219.66 207.22C5241.86 207.22 5259.4 195.232 5267.84 180.358H5268.5L5266.06 205H5279.6L5291.59 89.56H5278.05L5275.61 114.202H5274.5C5269.39 99.328 5252.52 87.34 5229.87 87.34C5194.8 87.34 5167.49 116.422 5167.49 153.496C5167.49 189.238 5192.58 207.22 5219.66 207.22ZM5181.26 152.608C5181.26 122.416 5203.68 99.772 5231.65 99.772C5253.63 99.772 5272.94 113.536 5272.94 141.952C5272.94 172.144 5250.52 194.788 5222.55 194.788C5200.35 194.788 5181.26 181.024 5181.26 152.608ZM5341.95 207.22C5364.37 207.22 5382.13 194.344 5382.13 173.032C5382.13 155.938 5370.81 147.946 5353.27 140.176L5345.94 137.068C5334.18 131.74 5329.29 125.746 5329.29 117.088C5329.29 105.322 5338.4 99.328 5350.38 99.328C5362.59 99.328 5369.7 105.322 5373.47 115.09L5384.57 111.538C5381.24 97.108 5368.37 87.34 5350.83 87.34C5331.07 87.34 5315.53 99.772 5315.53 117.754C5315.53 129.964 5322.86 140.398 5339.51 147.502L5347.72 151.054C5361.26 157.048 5368.59 162.376 5368.59 173.476C5368.59 189.016 5354.82 195.232 5342.39 195.232C5328.85 195.232 5317.97 187.684 5315.75 173.254L5303.76 176.584C5305.54 195.232 5320.64 207.22 5341.95 207.22ZM5430.33 206.332C5434.77 206.332 5439.65 205.666 5444.09 203.002L5445.2 191.902C5440.76 193.678 5437.21 194.122 5434.55 194.122C5426.78 194.122 5423.45 190.126 5424.11 182.578L5432.77 100.882H5455.19L5456.3 89.56H5433.88L5436.99 60.034H5423.45L5420.34 89.56H5405.46L5404.35 100.882H5419.23L5410.35 185.464C5408.79 199.894 5417.01 206.332 5430.33 206.332ZM5520.61 207.22C5538.82 207.22 5555.69 200.116 5567.68 187.018L5560.79 179.914C5551.25 189.904 5537.71 195.232 5522.83 195.232C5498.86 195.232 5479.76 180.802 5479.76 152.386V152.164H5578.55C5586.77 108.874 5559.68 87.34 5529.71 87.34C5494.64 87.34 5466.89 116.644 5466.89 153.496C5466.89 188.794 5491.75 207.22 5520.61 207.22ZM5480.87 141.286C5485.31 117.088 5504.41 99.328 5528.83 99.328C5551.03 99.328 5569.45 114.202 5567.68 141.286H5480.87ZM5627.04 207.22C5649.46 207.22 5667.22 194.344 5667.22 173.032C5667.22 155.938 5655.9 147.946 5638.36 140.176L5631.03 137.068C5619.27 131.74 5614.38 125.746 5614.38 117.088C5614.38 105.322 5623.48 99.328 5635.47 99.328C5647.68 99.328 5654.79 105.322 5658.56 115.09L5669.66 111.538C5666.33 97.108 5653.45 87.34 5635.92 87.34C5616.16 87.34 5600.62 99.772 5600.62 117.754C5600.62 129.964 5607.94 140.398 5624.59 147.502L5632.81 151.054C5646.35 157.048 5653.68 162.376 5653.68 173.476C5653.68 189.016 5639.91 195.232 5627.48 195.232C5613.94 195.232 5603.06 187.684 5600.84 173.254L5588.85 176.584C5590.63 195.232 5605.72 207.22 5627.04 207.22ZM5715.42 206.332C5719.86 206.332 5724.74 205.666 5729.18 203.002L5730.29 191.902C5725.85 193.678 5722.3 194.122 5719.63 194.122C5711.86 194.122 5708.53 190.126 5709.2 182.578L5717.86 100.882H5740.28L5741.39 89.56H5718.97L5722.08 60.034H5708.53L5705.43 89.56H5690.55L5689.44 100.882H5704.32L5695.44 185.464C5693.88 199.894 5702.1 206.332 5715.42 206.332ZM5800.11 205H5813.87L5819.64 148.168H5855.16C5891.13 148.168 5913.99 124.636 5913.99 92.89C5913.77 66.028 5896.9 47.38 5865.6 47.38H5816.31L5800.11 205ZM5820.97 135.07L5828.74 60.478H5863.15C5886.02 60.478 5899.56 71.578 5899.78 93.778C5899.78 119.308 5882.02 135.07 5855.38 135.07H5820.97ZM5926.28 205H5939.82L5946.26 143.062V143.728C5948.92 116.644 5966.9 99.994 5989.1 99.994C5990.66 99.994 5992.43 100.216 5994.21 100.66L5995.54 88.006C5993.99 87.562 5991.99 87.34 5989.32 87.34C5968.9 87.34 5955.58 100.438 5949.14 115.534L5951.81 89.56H5938.26L5926.28 205ZM6055.87 207.22C6090.94 207.22 6120.69 177.916 6120.69 140.842C6120.69 105.322 6092.05 87.34 6067.41 87.34C6032.34 87.34 6002.59 116.644 6002.59 153.94C6002.59 189.238 6031 207.22 6055.87 207.22ZM6015.91 153.718C6015.91 117.532 6044.55 99.55 6066.08 99.55C6085.62 99.55 6107.37 112.87 6107.37 141.064C6107.37 177.028 6078.73 195.01 6057.2 195.01C6037.66 195.01 6015.91 181.69 6015.91 153.718ZM6094.04 247.846H6098.48C6124.01 247.846 6142.66 238.744 6146.43 204.778L6158.42 89.56H6144.88L6132.89 203.89C6130.22 229.42 6117.57 235.192 6100.03 235.192H6095.37L6094.04 247.846ZM6147.76 60.478H6161.3L6162.86 47.38H6149.32L6147.76 60.478ZM6228.45 207.22C6246.66 207.22 6263.53 200.116 6275.52 187.018L6268.64 179.914C6259.09 189.904 6245.55 195.232 6230.67 195.232C6206.7 195.232 6187.61 180.802 6187.61 152.386V152.164H6286.4C6294.61 108.874 6267.53 87.34 6237.56 87.34C6202.48 87.34 6174.73 116.644 6174.73 153.496C6174.73 188.794 6199.59 207.22 6228.45 207.22ZM6188.72 141.286C6193.16 117.088 6212.25 99.328 6236.67 99.328C6258.87 99.328 6277.29 114.202 6275.52 141.286H6188.72ZM6358.11 207.22C6378.53 207.22 6397.63 197.452 6409.61 178.804L6399.62 172.81C6390.3 187.018 6375.43 194.788 6359.44 194.788C6337.69 194.788 6317.71 180.136 6317.71 151.498C6317.71 118.864 6343.46 99.772 6368.32 99.772C6384.08 99.772 6398.74 107.542 6405.17 121.75L6416.27 115.756C6408.06 97.108 6389.41 87.34 6368.54 87.34C6332.8 87.34 6303.94 116.422 6303.94 153.274C6303.94 188.128 6329.69 207.22 6358.11 207.22ZM6459.68 206.332C6464.12 206.332 6469 205.666 6473.44 203.002L6474.55 191.902C6470.11 193.678 6466.56 194.122 6463.9 194.122C6456.13 194.122 6452.8 190.126 6453.46 182.578L6462.12 100.882H6484.54L6485.65 89.56H6463.23L6466.34 60.034H6452.8L6449.69 89.56H6434.82L6433.71 100.882H6448.58L6439.7 185.464C6438.15 199.894 6446.36 206.332 6459.68 206.332ZM6529.78 207.22C6552.2 207.22 6569.96 194.344 6569.96 173.032C6569.96 155.938 6558.64 147.946 6541.1 140.176L6533.77 137.068C6522.01 131.74 6517.12 125.746 6517.12 117.088C6517.12 105.322 6526.23 99.328 6538.21 99.328C6550.42 99.328 6557.53 105.322 6561.3 115.09L6572.4 111.538C6569.07 97.108 6556.2 87.34 6538.66 87.34C6518.9 87.34 6503.36 99.772 6503.36 117.754C6503.36 129.964 6510.69 140.398 6527.34 147.502L6535.55 151.054C6549.09 157.048 6556.42 162.376 6556.42 173.476C6556.42 189.016 6542.65 195.232 6530.22 195.232C6516.68 195.232 6505.8 187.684 6503.58 173.254L6491.59 176.584C6493.37 195.232 6508.47 207.22 6529.78 207.22Z" fill="#FCFDFC"/>
<circle cx="1641.86" cy="142.701" r="22.4473" fill="#0303FC"/>
<circle cx="4998.45" cy="142.701" r="22.4473" fill="#0303FC"/>
<circle cx="3291.45" cy="142.701" r="22.4473" fill="#0303FC"/>
</svg>
