<svg width="39" height="25" viewBox="0 0 39 25" fill="none" xmlns="http://www.w3.org/2000/svg">
<path d="M25.4429 1.61821H35.1668V3.97728H25.4429V1.61821ZM15.6995 10.9521C17.849 9.9237 18.9749 8.35911 18.9749 5.94155C18.9749 1.16004 15.4168 0 11.308 0H0V24.0002H11.6248C15.9822 24.0002 20.0716 21.9043 20.0716 17.0302C20.0716 14.018 18.6484 11.7905 15.6995 10.9521ZM5.27379 4.09426H10.221C12.1268 4.09426 13.8376 4.62554 13.8376 6.83839C13.8376 8.87577 12.507 9.69462 10.6207 9.69462H5.27379V4.09426ZM10.9034 19.9254H5.26892V13.3161H11.0155C13.3356 13.3161 14.8027 14.286 14.8027 16.7426C14.8027 19.1602 13.0529 19.9254 10.9034 19.9254ZM38.9686 15.5631C38.9686 10.4209 35.9612 6.13651 30.5217 6.13651C25.2333 6.13651 21.6362 10.1187 21.6362 15.3388C21.6362 20.7491 25.0432 24.4632 30.5217 24.4632C34.6696 24.4632 37.3552 22.5964 38.6469 18.6143H34.4405C33.9823 20.1009 32.1204 20.8807 30.6728 20.8807C27.8751 20.8807 26.4128 19.243 26.4128 16.4599H38.9344C38.9491 16.1723 38.9686 15.8701 38.9686 15.5631ZM26.4128 13.4477C26.5639 11.1617 28.0895 9.73361 30.3706 9.73361C32.7687 9.73361 33.9677 11.1422 34.1773 13.4477H26.4128Z" fill="#1B171B"></path>
</svg>
