<svg width="39" height="25" fill="none" xmlns="http://www.w3.org/2000/svg"><path d="M25.443 1.618h9.724v2.36h-9.724v-2.36Zm-9.744 9.334c2.15-1.028 3.276-2.593 3.276-5.01C18.975 1.16 15.417 0 11.308 0H0v24h11.625c4.357 0 8.447-2.096 8.447-6.97 0-3.012-1.424-5.24-4.372-6.078ZM5.274 4.094h4.947c1.906 0 3.617.532 3.617 2.744 0 2.038-1.331 2.857-3.217 2.857H5.274v-5.6Zm5.63 15.831H5.268v-6.609h5.746c2.32 0 3.788.97 3.788 3.427 0 2.417-1.75 3.182-3.9 3.182Zm28.065-4.362c0-5.142-3.008-9.426-8.447-9.426-5.289 0-8.886 3.982-8.886 9.202 0 5.41 3.407 9.124 8.886 9.124 4.148 0 6.833-1.867 8.125-5.849H34.44c-.459 1.487-2.32 2.267-3.768 2.267-2.798 0-4.26-1.638-4.26-4.421h12.521c.015-.288.035-.59.035-.897Zm-12.556-2.115c.15-2.286 1.677-3.714 3.958-3.714 2.398 0 3.597 1.408 3.806 3.714h-7.764Z" fill="#1B171B"/></svg>