<svg width="25" height="25" fill="none" xmlns="http://www.w3.org/2000/svg"><path fill-rule="evenodd" clip-rule="evenodd" d="M7.721.073C9.026.013 9.441 0 12.765 0c3.323 0 3.74.014 5.043.073 1.304.06 2.194.267 2.972.569a6.02 6.02 0 0 1 2.167 1.412 5.977 5.977 0 0 1 1.41 2.166c.303.779.51 1.668.57 2.97.06 1.307.073 1.723.073 5.045 0 3.323-.014 3.74-.073 5.044-.06 1.301-.267 2.191-.57 2.97a6.002 6.002 0 0 1-1.41 2.168 6 6 0 0 1-2.167 1.41c-.779.302-1.668.51-2.97.57-1.305.06-1.721.073-5.045.073-3.323 0-3.74-.015-5.044-.073-1.301-.06-2.191-.267-2.97-.57a6.002 6.002 0 0 1-2.168-1.41 5.997 5.997 0 0 1-1.411-2.167C.87 19.47.664 18.58.604 17.28.544 15.973.53 15.557.53 12.235c0-3.324.015-3.74.074-5.043.059-1.304.267-2.193.568-2.972a6.002 6.002 0 0 1 1.413-2.167A5.997 5.997 0 0 1 4.75.642C5.53.34 6.418.133 7.72.073h.001Zm9.988 2.203c-1.29-.06-1.677-.071-4.944-.071s-3.654.012-4.944.07c-1.193.055-1.84.254-2.272.422a3.8 3.8 0 0 0-1.407.915 3.795 3.795 0 0 0-.915 1.407c-.168.431-.367 1.078-.421 2.272-.06 1.29-.071 1.677-.071 4.944s.012 3.654.07 4.944c.055 1.193.254 1.84.422 2.272.196.53.509 1.012.915 1.407.395.406.876.719 1.407.915.431.168 1.079.367 2.272.421 1.29.06 1.676.071 4.944.071s3.654-.012 4.944-.07c1.194-.055 1.84-.254 2.273-.422.57-.223.978-.486 1.407-.915.405-.395.718-.876.914-1.407.168-.431.367-1.079.421-2.272.06-1.29.072-1.677.072-4.944s-.013-3.654-.072-4.944c-.054-1.194-.253-1.84-.421-2.272a3.8 3.8 0 0 0-.915-1.407 3.796 3.796 0 0 0-1.407-.915c-.431-.168-1.078-.367-2.272-.421Zm-6.507 13.73a4.08 4.08 0 0 0 4.45-6.657 4.081 4.081 0 1 0-4.45 6.658ZM8.318 7.789a6.289 6.289 0 1 1 8.894 8.894 6.289 6.289 0 0 1-8.894-8.894Zm12.13-.905a1.487 1.487 0 1 0-2.04-2.163 1.487 1.487 0 0 0 2.04 2.163Z" fill="#1B171B"/></svg>