<svg width="25" height="25" viewBox="0 0 25 25" fill="none" xmlns="http://www.w3.org/2000/svg">
<path fill-rule="evenodd" clip-rule="evenodd" d="M7.72096 0.0734096C9.02565 0.0133472 9.44163 0 12.7651 0C16.0885 0 16.5045 0.0144595 17.8081 0.0734096C19.1117 0.13236 20.0015 0.340354 20.7801 0.641778C21.5954 0.949876 22.335 1.43149 22.9468 2.05436C23.5696 2.66499 24.0501 3.40354 24.3571 4.21994C24.6597 4.99853 24.8665 5.88834 24.9266 7.18969C24.9867 8.49661 25 8.91259 25 12.2349C25 15.5584 24.9856 15.9744 24.9266 17.2791C24.8677 18.5804 24.6597 19.4702 24.3571 20.2488C24.0501 21.0653 23.5688 21.8051 22.9468 22.4166C22.335 23.0395 21.5954 23.52 20.7801 23.827C20.0015 24.1295 19.1117 24.3364 17.8103 24.3965C16.5045 24.4565 16.0885 24.4699 12.7651 24.4699C9.44163 24.4699 9.02565 24.4554 7.72096 24.3965C6.4196 24.3375 5.52979 24.1295 4.7512 23.827C3.93471 23.52 3.19494 23.0387 2.5834 22.4166C1.96095 21.8056 1.47926 21.0662 1.17193 20.2499C0.870505 19.4713 0.663623 18.5815 0.603561 17.2802C0.543499 15.9733 0.530151 15.5573 0.530151 12.2349C0.530151 8.91148 0.544611 8.49549 0.603561 7.19192C0.662511 5.88834 0.870505 4.99853 1.17193 4.21994C1.47972 3.40363 1.96177 2.66423 2.58451 2.05324C3.19519 1.43093 3.93421 0.949257 4.75009 0.641778C5.52868 0.340354 6.41849 0.133472 7.71984 0.0734096H7.72096ZM17.7091 2.2757C16.4189 2.21675 16.0318 2.20451 12.7651 2.20451C9.49836 2.20451 9.11129 2.21675 7.82106 2.2757C6.6276 2.3302 5.98026 2.52929 5.5487 2.69725C4.97811 2.9197 4.5699 3.18331 4.14168 3.61153C3.73575 4.00644 3.42336 4.4872 3.2274 5.01855C3.05945 5.45011 2.86035 6.09745 2.80585 7.29091C2.7469 8.58114 2.73466 8.96821 2.73466 12.2349C2.73466 15.5017 2.7469 15.8887 2.80585 17.179C2.86035 18.3724 3.05945 19.0198 3.2274 19.4513C3.42316 19.9819 3.7357 20.4635 4.14168 20.8583C4.53654 21.2643 5.01815 21.5769 5.5487 21.7726C5.98026 21.9406 6.6276 22.1397 7.82106 22.1942C9.11129 22.2531 9.49725 22.2654 12.7651 22.2654C16.0329 22.2654 16.4189 22.2531 17.7091 22.1942C18.9026 22.1397 19.5499 21.9406 19.9815 21.7726C20.5521 21.5502 20.9603 21.2866 21.3885 20.8583C21.7945 20.4635 22.107 19.9819 22.3028 19.4513C22.4707 19.0198 22.6698 18.3724 22.7243 17.179C22.7833 15.8887 22.7955 15.5017 22.7955 12.2349C22.7955 8.96821 22.7833 8.58114 22.7243 7.29091C22.6698 6.09745 22.4707 5.45011 22.3028 5.01855C22.0803 4.44796 21.8167 4.03975 21.3885 3.61153C20.9936 3.20563 20.5128 2.89324 19.9815 2.69725C19.5499 2.52929 18.9026 2.3302 17.7091 2.2757ZM11.2024 16.0066C12.0751 16.3699 13.0469 16.419 13.9518 16.1454C14.8567 15.8717 15.6385 15.2925 16.1637 14.5065C16.689 13.7204 16.925 12.7765 16.8316 11.8357C16.7381 10.895 16.321 10.0159 15.6514 9.3486C15.2246 8.92202 14.7085 8.59539 14.1402 8.39222C13.572 8.18904 12.9658 8.11439 12.3652 8.17362C11.7647 8.23285 11.1847 8.42451 10.6671 8.73478C10.1495 9.04505 9.70718 9.46622 9.3719 9.96797C9.03661 10.4697 8.81675 11.0396 8.72813 11.6365C8.63951 12.2334 8.68435 12.8426 8.85941 13.4201C9.03446 13.9976 9.33539 14.5291 9.74052 14.9764C10.1457 15.4236 10.6449 15.7755 11.2024 16.0066ZM8.31824 7.78809C8.90221 7.20412 9.59548 6.7409 10.3585 6.42485C11.1215 6.10881 11.9392 5.94615 12.7651 5.94615C13.5909 5.94615 14.4087 6.10881 15.1717 6.42485C15.9347 6.7409 16.628 7.20412 17.2119 7.78809C17.7959 8.37206 18.2591 9.06533 18.5752 9.82832C18.8912 10.5913 19.0539 11.4091 19.0539 12.2349C19.0539 13.0608 18.8912 13.8786 18.5752 14.6415C18.2591 15.4045 17.7959 16.0978 17.2119 16.6818C16.0326 17.8612 14.433 18.5237 12.7651 18.5237C11.0972 18.5237 9.49762 17.8612 8.31824 16.6818C7.13887 15.5024 6.4763 13.9028 6.4763 12.2349C6.4763 10.567 7.13887 8.96747 8.31824 7.78809ZM20.4486 6.88271C20.5933 6.7462 20.7092 6.58204 20.7893 6.39995C20.8694 6.21787 20.9122 6.02155 20.9151 5.82264C20.918 5.62372 20.881 5.42625 20.8062 5.2419C20.7314 5.05756 20.6204 4.89009 20.4797 4.74942C20.3391 4.60875 20.1716 4.49774 19.9872 4.42295C19.8029 4.34816 19.6054 4.31112 19.4065 4.31402C19.2076 4.31692 19.0113 4.3597 18.8292 4.43983C18.6471 4.51996 18.483 4.63581 18.3464 4.78052C18.081 5.06196 17.9356 5.43578 17.9412 5.82264C17.9469 6.20949 18.1031 6.57892 18.3766 6.8525C18.6502 7.12608 19.0197 7.28226 19.4065 7.2879C19.7934 7.29354 20.1672 7.14819 20.4486 6.88271Z" fill="#1B171B"></path>
</svg>
