<svg width="25" height="25" viewBox="0 0 25 25" fill="none" xmlns="http://www.w3.org/2000/svg">
<path fill-rule="evenodd" clip-rule="evenodd" d="M9.29087 8.52653H13.8349V10.79C14.4895 9.48819 16.1681 8.31853 18.6897 8.31853C23.5238 8.31853 24.6714 10.9099 24.6714 15.6644V24.4699H19.7774V16.7472C19.7774 14.0396 19.1229 12.5127 17.4565 12.5127C15.1453 12.5127 14.1848 14.1583 14.1848 16.746V24.4699H9.29087V8.52653ZM0.898929 24.2619H5.7929V8.31853H0.898929V24.2619ZM6.49397 3.11991C6.49415 3.53012 6.41279 3.93627 6.25463 4.31476C6.09647 4.69325 5.86466 5.03653 5.57267 5.32464C4.98099 5.91268 4.18011 6.24184 3.34592 6.23982C2.51319 6.23926 1.71416 5.91094 1.12161 5.32587C0.830672 5.03677 0.599646 4.69311 0.441763 4.31457C0.283881 3.93603 0.202247 3.53005 0.201538 3.11991C0.201538 2.2916 0.531881 1.49878 1.12283 0.91395C1.71486 0.32809 2.51423 -0.000366082 3.34714 3.06197e-07C4.18156 3.06197e-07 4.98173 0.32912 5.57267 0.91395C6.1624 1.49878 6.49397 2.2916 6.49397 3.11991Z" fill="#1B171B"></path>
</svg>
