<svg width="25" height="25" fill="none" xmlns="http://www.w3.org/2000/svg"><path fill-rule="evenodd" clip-rule="evenodd" d="M9.29 8.527h4.545v2.263c.654-1.302 2.333-2.471 4.855-2.471 4.834 0 5.981 2.59 5.981 7.345v8.806h-4.894v-7.723c0-2.707-.654-4.234-2.32-4.234-2.312 0-3.272 1.645-3.272 4.233v7.724H9.29V8.527ZM.9 24.262h4.894V8.319H.899v15.943ZM6.494 3.12a3.095 3.095 0 0 1-.921 2.205 3.169 3.169 0 0 1-4.451.001 3.117 3.117 0 0 1-.92-2.206 3.1 3.1 0 0 1 .92-2.206 3.165 3.165 0 0 1 4.45 0c.59.585.922 1.378.922 2.206Z" fill="#1B171B"/></svg>