<svg width="100" height="63" fill="none" xmlns="http://www.w3.org/2000/svg"><path fill-rule="evenodd" clip-rule="evenodd" d="M42.836 7.006c-2.484 1.224-5.176 3.788-8.382 6.897-1.674 1.623-3.649 3.93-5.723 6.652 1.754 2.886 2.51 6.31 2.63 9.713.167 4.698-.849 9.738-2.528 14.273-1.676 4.527-4.098 8.78-6.94 11.83-2.726 2.923-6.527 5.424-10.785 4.557-2.417-.493-4.104-2.048-4.886-4.203-.692-1.906-.615-4.084-.272-6.115.695-4.12 2.776-9.22 5.372-14.305 2.603-5.098 5.881-10.481 9.208-15.268-1.132-.756-2.173-1.087-3.102-1.184-1.348-.14-2.77.181-4.247.928-3.05 1.54-5.775 4.612-7.316 7.061A3.176 3.176 0 0 1 .489 24.46c1.891-3.006 5.382-7.103 9.829-9.349 2.27-1.146 4.917-1.871 7.768-1.575 2.135.223 4.22 1.002 6.203 2.377 2.038-2.621 4.003-4.882 5.743-6.57l.235-.227C33.17 6.3 36.545 3.024 40.03 1.308c1.868-.92 4.01-1.524 6.304-1.235 2.342.294 4.444 1.464 6.286 3.368 3.291 3.4 3.337 7.602 2.387 11.297-.888 3.448-2.79 7.076-4.456 10.25l-.179.341c-1.822 3.476-3.307 6.389-3.848 8.845-.258 1.173-.242 2.012-.079 2.618.146.541.457 1.09 1.198 1.654.531.404.823.394 1.137.316.519-.129 1.345-.575 2.504-1.664 2.219-2.085 4.566-5.439 7.26-9.287l.441-.631c2.732-3.9 5.822-8.248 9.14-11.118 1.682-1.455 3.628-2.718 5.828-3.268 2.297-.575 4.672-.32 6.96.937 2.072 1.101 3.247 2.9 3.62 4.984.34 1.895 0 3.896-.509 5.705-.867 3.078-2.576 6.707-4.226 10.21-.278.59-.554 1.175-.823 1.753-1.97 4.224-3.715 8.26-4.396 11.804-.675 3.51-.18 5.81 1.393 7.383.73.73 1.471.95 2.336.886.99-.074 2.259-.55 3.678-1.524 2.881-1.977 5.415-5.336 6.348-8.06a3.176 3.176 0 0 1 6.01 2.06c-1.409 4.11-4.843 8.547-8.763 11.237-1.981 1.36-4.321 2.437-6.8 2.621-2.605.195-5.191-.619-7.301-2.729-3.72-3.72-3.996-8.615-3.14-13.072.85-4.423 2.937-9.128 4.877-13.29.296-.635.588-1.255.873-1.861 1.673-3.56 3.11-6.616 3.82-9.14.412-1.464.46-2.367.37-2.863-.053-.296-.11-.37-.354-.498l-.03-.015-.029-.017c-.88-.486-1.613-.539-2.372-.349-.866.217-1.933.802-3.215 1.91-2.61 2.259-5.253 5.905-8.092 9.958l-.597.855c-2.524 3.61-5.235 7.49-7.958 10.049-1.48 1.39-3.26 2.687-5.32 3.199-2.265.563-4.524.092-6.52-1.428-1.785-1.36-2.948-3.074-3.481-5.053-.516-1.913-.385-3.852.008-5.637.754-3.424 2.684-7.106 4.375-10.332l.05-.097c1.82-3.47 3.414-6.52 4.11-9.225.664-2.583.337-4.122-.8-5.296-1.047-1.082-1.881-1.404-2.512-1.484-.677-.085-1.544.059-2.706.631ZM24.446 26.57c-2.683 4.01-5.308 8.398-7.466 12.625-2.514 4.924-4.236 9.328-4.767 12.473-.27 1.602-.162 2.498-.02 2.89.025.069.026.096.041.111.016.016.048.016.142.035.94.192 2.625-.255 4.87-2.664 2.13-2.284 4.166-5.747 5.63-9.703 1.46-3.946 2.268-8.152 2.137-11.843-.052-1.447-.243-2.758-.567-3.924Z" fill="#FCFDFC"/><path d="M100 38.017a3.85 3.85 0 1 1-7.7 0 3.85 3.85 0 0 1 7.7 0Z" fill="#FCFDFC"/></svg>