<svg width="100" height="64" fill="none" xmlns="http://www.w3.org/2000/svg"><path fill-rule="evenodd" clip-rule="evenodd" d="M42.836 7.3c-2.484 1.225-5.176 3.788-8.382 6.898-1.674 1.623-3.649 3.929-5.723 6.652 1.754 2.886 2.51 6.31 2.63 9.713.167 4.697-.849 9.737-2.528 14.273-1.676 4.526-4.098 8.78-6.94 11.83-2.726 2.923-6.527 5.424-10.785 4.556-2.417-.492-4.104-2.048-4.886-4.203-.692-1.905-.615-4.083-.272-6.114.695-4.121 2.776-9.22 5.372-14.305 2.603-5.098 5.882-10.482 9.208-15.269-1.132-.756-2.173-1.086-3.102-1.183-1.348-.14-2.77.181-4.247.927-3.05 1.54-5.775 4.613-7.316 7.062a3.176 3.176 0 0 1-5.376-3.384c1.891-3.005 5.382-7.102 9.829-9.348 2.27-1.147 4.917-1.872 7.768-1.575 2.135.222 4.22 1.001 6.203 2.377 2.038-2.622 4.003-4.882 5.743-6.57l.235-.228c2.902-2.815 6.278-6.09 9.762-7.807C41.897.682 44.039.08 46.333.367c2.342.294 4.444 1.465 6.286 3.369 3.291 3.4 3.337 7.602 2.387 11.296-.888 3.448-2.79 7.076-4.456 10.251l-.179.34c-1.822 3.477-3.307 6.39-3.848 8.846-.258 1.172-.242 2.011-.079 2.618.146.541.457 1.089 1.198 1.653.531.405.823.395 1.137.317.519-.13 1.345-.576 2.504-1.664 2.219-2.085 4.566-5.44 7.26-9.287l.441-.632c2.732-3.9 5.822-8.247 9.14-11.117 1.682-1.456 3.628-2.718 5.828-3.269 2.297-.575 4.672-.32 6.96.938 2.072 1.1 3.247 2.899 3.62 4.984.34 1.895 0 3.895-.509 5.705-.867 3.077-2.576 6.706-4.226 10.21-.278.589-.554 1.174-.823 1.753-1.97 4.224-3.715 8.26-4.396 11.804-.675 3.51-.18 5.81 1.393 7.382.73.73 1.471.95 2.336.886.99-.074 2.259-.55 3.678-1.523 2.881-1.977 5.415-5.336 6.348-8.06a3.176 3.176 0 0 1 6.01 2.06c-1.409 4.11-4.843 8.546-8.763 11.237-1.981 1.36-4.321 2.436-6.8 2.62-2.605.195-5.191-.619-7.301-2.728-3.72-3.72-3.996-8.616-3.14-13.073.85-4.423 2.937-9.128 4.877-13.29.296-.634.588-1.255.873-1.86 1.673-3.56 3.11-6.617 3.82-9.14.412-1.464.459-2.367.37-2.863-.053-.297-.11-.37-.354-.498l-.03-.016-.029-.016c-.88-.487-1.613-.54-2.372-.35-.866.217-1.933.802-3.215 1.911-2.61 2.258-5.253 5.905-8.092 9.957l-.597.855c-2.524 3.611-5.235 7.49-7.958 10.05-1.48 1.39-3.26 2.686-5.32 3.198-2.265.563-4.524.093-6.52-1.428-1.785-1.36-2.948-3.074-3.481-5.052-.516-1.914-.385-3.852.008-5.638.754-3.424 2.684-7.106 4.375-10.332l.05-.096c1.82-3.47 3.414-6.52 4.11-9.226.664-2.583.337-4.121-.8-5.295-1.047-1.083-1.881-1.405-2.512-1.484-.677-.085-1.544.058-2.706.63Zm-18.39 19.563c-2.683 4.01-5.308 8.399-7.466 12.625-2.514 4.925-4.236 9.328-4.767 12.474-.27 1.601-.162 2.497-.02 2.89.025.068.026.096.041.11.016.016.048.016.142.036.94.191 2.625-.255 4.87-2.665 2.13-2.283 4.166-5.747 5.63-9.703 1.46-3.945 2.268-8.151 2.137-11.842-.052-1.447-.243-2.759-.567-3.925Z" fill="#000"/><path d="M100 38.312a3.85 3.85 0 1 1-7.7 0 3.85 3.85 0 0 1 7.7 0Z" fill="#000"/></svg>