<svg width="1730" height="1103" fill="none" xmlns="http://www.w3.org/2000/svg"><path fill-rule="evenodd" clip-rule="evenodd" d="M741.011 121.201c-42.974 21.169-89.532 65.522-144.998 119.308-28.953 28.076-63.115 67.968-99.006 115.069 30.35 49.93 43.414 109.147 45.504 168.026 2.884 81.261-14.684 168.447-43.732 246.911-28.986 78.297-70.884 151.892-120.055 204.632-47.15 50.573-112.908 93.833-186.56 78.833-41.815-8.52-70.998-35.43-84.529-72.708-11.964-32.961-10.642-70.634-4.712-105.774 12.03-71.286 48.035-159.506 92.94-247.46 45.022-88.186 101.739-181.317 159.287-264.127-19.588-13.081-37.589-18.798-53.665-20.471-23.323-2.428-47.903 3.132-73.461 16.04-52.753 26.642-99.911 79.797-126.574 122.16-16.164 25.681-50.086 33.396-75.767 17.232-25.68-16.164-33.396-50.086-17.232-75.766 32.72-51.984 93.117-122.867 170.036-161.713 39.278-19.837 85.063-32.383 134.376-27.249 36.938 3.845 73.02 17.324 107.311 41.116 35.257-45.345 69.245-84.453 99.341-113.638l4.074-3.951c50.19-48.691 108.607-105.363 168.864-135.046C724.779 6.701 761.814-3.73 801.515 1.255c40.501 5.087 76.865 25.341 108.74 58.275 56.924 58.816 57.721 131.507 41.279 195.413-15.347 59.648-48.269 122.407-77.082 177.331l-3.091 5.895c-31.52 60.129-57.214 110.509-66.571 153.01-4.465 20.279-4.189 34.795-1.36 45.288 2.523 9.358 7.906 18.838 20.724 28.604 9.183 6.997 14.236 6.818 19.666 5.469 8.973-2.231 23.271-9.953 43.312-28.784 38.386-36.067 78.994-94.088 125.578-160.654 2.54-3.617 5.09-7.26 7.65-10.926 47.26-67.461 100.71-142.673 158.1-192.318 29.11-25.179 62.77-47.017 100.82-56.54 39.75-9.948 80.83-5.528 120.41 16.212 35.84 19.046 56.16 50.157 62.62 86.223 5.87 32.784.01 67.389-8.81 98.689-14.99 53.238-44.56 116.014-73.11 176.619-4.8 10.191-9.57 20.32-14.24 30.331-34.07 73.069-64.26 142.874-76.04 204.191-11.67 60.719-3.11 100.498 24.1 127.708 12.62 12.621 25.45 16.444 40.41 15.329 17.12-1.277 39.08-9.507 63.63-26.358 49.84-34.202 93.67-92.306 109.82-139.424 9.83-28.705 41.08-44 69.78-34.162 28.71 9.838 44 41.083 34.17 69.788-24.37 71.093-83.76 147.85-151.59 194.396-34.27 23.53-74.75 42.14-117.64 45.34-45.05 3.36-89.79-10.71-126.28-47.21-64.37-64.36-69.13-149.035-54.31-226.142 14.7-76.51 50.79-157.903 84.36-229.894 5.12-10.984 10.17-21.719 15.09-32.202 28.94-61.571 53.79-114.446 66.08-158.094 7.13-25.335 7.95-40.951 6.41-49.537-1.58-3.817-1.58-5.563-6.12-8.611l-.51-.27-.51-.281c-15.22-8.413-27.91-9.328-41.04-6.042-14.99 3.751-33.44 13.872-55.61 33.048-45.16 39.066-90.88 102.149-139.98 172.254-3.43 4.89-6.88 9.823-10.34 14.786-43.66 62.467-90.55 129.58-137.653 173.834-25.615 24.068-56.413 46.484-92.049 55.342-39.179 9.739-78.247 1.6-112.769-24.703-30.887-23.532-50.998-53.175-60.227-87.406-8.923-33.097-6.658-66.636.142-97.52 13.041-59.233 46.432-122.928 75.684-178.726l.878-1.676c31.466-60.025 59.036-112.786 71.077-159.587 11.498-44.689 5.844-71.295-13.82-91.612-18.119-18.722-32.559-24.296-43.472-25.666-11.713-1.471-26.702 1.011-46.81 10.916ZM422.889 459.612c-46.417 69.355-91.829 145.278-129.157 218.392-43.491 85.185-73.272 161.368-82.454 215.779-4.676 27.709-2.815 43.208-.351 49.996.429 1.182.455 1.665.709 1.917.277.274.825.274 2.462.608 16.255 3.311 45.399-4.416 84.253-46.091 36.834-39.509 72.044-99.422 97.377-167.849 25.27-68.26 39.232-141.013 36.966-204.862-.889-25.034-4.204-47.727-9.805-67.89Z" fill="#FCFDFC"/><path d="M1729.89 657.658c0 36.781-29.82 66.598-66.6 66.598-36.78 0-66.6-29.817-66.6-66.598s29.82-66.598 66.6-66.598c36.78 0 66.6 29.817 66.6 66.598Z" fill="#0303FC"/><path transform="rotate(180 1658 1103)" fill="url('#paint0_linear_125_57')" d="M1658 1103h1643v289H1658z"/><defs><linearGradient id="paint0_linear_125_57" x1="2479.5" y1="1103" x2="2479.5" y2="1392" gradientUnits="userSpaceOnUse"><stop stop-color="#1B171B"/><stop offset="1" stop-color="#1B171B" stop-opacity="0"/></linearGradient></defs></svg>