<svg width="1730" height="1103" viewBox="0 0 1730 1103" fill="none" xmlns="http://www.w3.org/2000/svg">
<path fill-rule="evenodd" clip-rule="evenodd" d="M741.011 121.201C698.037 142.37 651.479 186.723 596.013 240.509C567.06 268.585 532.898 308.477 497.007 355.578C527.357 405.508 540.421 464.725 542.511 523.604C545.395 604.865 527.827 692.051 498.779 770.515C469.793 848.812 427.895 922.407 378.724 975.147C331.574 1025.72 265.816 1068.98 192.164 1053.98C150.349 1045.46 121.166 1018.55 107.635 981.272C95.6706 948.311 96.9935 910.638 102.923 875.498C114.953 804.212 150.958 715.992 195.863 628.038C240.885 539.852 297.602 446.721 355.15 363.911C335.562 350.83 317.561 345.113 301.485 343.44C278.162 341.012 253.582 346.572 228.024 359.48C175.271 386.122 128.113 439.277 101.45 481.64C85.2859 507.321 51.3641 515.036 25.6832 498.872C0.00231782 482.708 -7.71275 448.786 8.45109 423.106C41.1705 371.122 101.568 300.239 178.487 261.393C217.765 241.556 263.55 229.01 312.863 234.144C349.801 237.989 385.883 251.468 420.174 275.26C455.431 229.915 489.419 190.807 519.515 161.622C520.867 160.311 522.225 158.994 523.589 157.671C573.779 108.98 632.196 52.3081 692.453 22.6253C724.779 6.70134 761.814 -3.73113 801.515 1.25493C842.016 6.3415 878.38 26.5962 910.255 59.5303C967.179 118.346 967.976 191.037 951.534 254.943C936.187 314.591 903.265 377.35 874.452 432.274C873.416 434.249 872.386 436.214 871.361 438.169C839.841 498.298 814.147 548.678 804.79 591.179C800.325 611.458 800.601 625.974 803.43 636.467C805.953 645.825 811.336 655.305 824.154 665.071C833.337 672.068 838.39 671.889 843.82 670.54C852.793 668.309 867.091 660.587 887.132 641.756C925.518 605.689 966.126 547.668 1012.71 481.102C1015.25 477.485 1017.8 473.842 1020.36 470.176C1067.62 402.715 1121.07 327.503 1178.46 277.858C1207.57 252.679 1241.23 230.841 1279.28 221.318C1319.03 211.37 1360.11 215.79 1399.69 237.53C1435.53 256.576 1455.85 287.687 1462.31 323.753C1468.18 356.537 1462.32 391.142 1453.5 422.442C1438.51 475.68 1408.94 538.456 1380.39 599.061C1375.59 609.252 1370.82 619.381 1366.15 629.392C1332.08 702.461 1301.89 772.266 1290.11 833.583C1278.44 894.302 1287 934.081 1314.21 961.291C1326.83 973.912 1339.66 977.735 1354.62 976.62C1371.74 975.343 1393.7 967.113 1418.25 950.262C1468.09 916.06 1511.92 857.956 1528.07 810.838C1537.9 782.133 1569.15 766.838 1597.85 776.676C1626.56 786.514 1641.85 817.759 1632.02 846.464C1607.65 917.557 1548.26 994.314 1480.43 1040.86C1446.16 1064.39 1405.68 1083 1362.79 1086.2C1317.74 1089.56 1273 1075.49 1236.51 1038.99C1172.14 974.63 1167.38 889.955 1182.2 812.848C1196.9 736.338 1232.99 654.945 1266.56 582.954C1271.68 571.97 1276.73 561.235 1281.65 550.752C1310.59 489.181 1335.44 436.306 1347.73 392.658C1354.86 367.323 1355.68 351.707 1354.14 343.121C1352.56 339.304 1352.56 337.558 1348.02 334.51L1347.51 334.24L1347 333.959C1331.78 325.546 1319.09 324.631 1305.96 327.917C1290.97 331.668 1272.52 341.789 1250.35 360.965C1205.19 400.031 1159.47 463.114 1110.37 533.219C1106.94 538.109 1103.49 543.042 1100.03 548.005C1056.37 610.472 1009.48 677.585 962.377 721.839C936.762 745.907 905.964 768.323 870.328 777.181C831.149 786.92 792.081 778.781 757.559 752.478C726.672 728.946 706.561 699.303 697.332 665.072C688.409 631.975 690.674 598.436 697.474 567.552C710.515 508.319 743.906 444.624 773.158 388.826L774.036 387.15C805.502 327.125 833.072 274.364 845.113 227.563C856.611 182.874 850.957 156.268 831.293 135.951C813.174 117.229 798.734 111.655 787.821 110.285C776.108 108.814 761.119 111.296 741.011 121.201ZM422.889 459.612C376.472 528.967 331.06 604.89 293.732 678.004C250.241 763.189 220.46 839.372 211.278 893.783C206.602 921.492 208.463 936.991 210.927 943.779C211.356 944.961 211.382 945.444 211.636 945.696C211.913 945.97 212.461 945.97 214.098 946.304C230.353 949.615 259.497 941.888 298.351 900.213C335.185 860.704 370.395 800.791 395.728 732.364C420.998 664.104 434.96 591.351 432.694 527.502C431.805 502.468 428.49 479.775 422.889 459.612Z" fill="#FCFDFC"></path>
<path d="M1729.89 657.658C1729.89 694.439 1700.07 724.256 1663.29 724.256C1626.51 724.256 1596.69 694.439 1596.69 657.658C1596.69 620.877 1626.51 591.06 1663.29 591.06C1700.07 591.06 1729.89 620.877 1729.89 657.658Z" fill="#0303FC"></path>
<rect x="1658" y="1103" width="1643" height="289" transform="rotate(180 1658 1103)" fill="url('#paint0_linear_125_57')"></rect>
<defs>
<linearGradient id="paint0_linear_125_57" x1="2479.5" y1="1103" x2="2479.5" y2="1392" gradientUnits="userSpaceOnUse">
<stop stop-color="#1B171B"></stop>
<stop offset="1" stop-color="#1B171B" stop-opacity="0"></stop>
</linearGradient>
</defs>
</svg>
